<mxfile host="app.diagrams.net" modified="2024-04-09T08:31:49.430Z" agent="Mozilla/5.0 (Windows NT 10.0; Win64; x64; rv:109.0) Gecko/20100101 Firefox/115.0" etag="aycb7WdvghKSQ-DFVGxr" version="24.2.3" type="device" pages="3">
  <diagram name="Seite-1" id="EnR1w_hwBsn8X00-3wL8">
    <mxGraphModel dx="2074" dy="1071" grid="1" gridSize="10" guides="1" tooltips="1" connect="1" arrows="1" fold="1" page="1" pageScale="1" pageWidth="827" pageHeight="1169" math="0" shadow="0">
      <root>
        <mxCell id="0" />
        <mxCell id="1" parent="0" />
        <mxCell id="E44d1Qz_v7KlyIdaOP3Y-2" value="" style="shape=image;imageAspect=0;aspect=fixed;verticalLabelPosition=bottom;verticalAlign=top;image=data:image/png,iVBORw0KGgoAAAANSUhEUgAAAgAAAAIACAYAAAD0eNT6AAAACXBIWXMAAA7DAAAOwwHHb6hkAAAAGXRFWHRTb2Z0d2FyZQB3d3cuaW5rc2NhcGUub3Jnm+48GgAAIABJREFUeJzt3Xe8HFd58PGfZMuSVdzAvTdsUwwuGIPBNqaEHsA0A+EFAgSTAAkQ2ksSArwJpNGSAAmBEEoIGEgIAdNMcwGMjSkG3DCWey+SrGbpvn88d3Ovrnb3zjM7Zcvv+/mcj2Vp9pwzs7PnnJk58xyQJEmSJEmSJEmSJEmSJEmSJEmSJEmSJEmSJEmSJEmSJEmSJEmSJEmSJEmSJEmSJEmSJEmSJEmSJEmSJEmSJEmSJEmSJEmSJEmSJEmSJEmSJEmSJEmSJEmSJEmSJEmSJEmSJEmSJEmSJEmSJEmSJEmSJEmSJEmSJEmSJEmSJEmSJEmSJEmSJEmSJEmSJEmSJEmSJEmSJEmSJEmSJEmSJEmSJEmSJEmSJEmSJEmSJEmSJEmSJEmSJEmSJEmSJEmSJEmSJEmSJEmSJEmSJEmSJEmSJEmSJEmSJEmSJEmSJEmSJEmSJEmSJEmSJEmSJEmSJEmSJEmSJEmSJEmSJEmSJEmSJEmSJEmSJEmSJEmSJEmSJEmSJEmSJEmSJEmSJEmSJEmSJEmSJEmSJEmSJEmSJEmSJEmSJEmSJEmSJEmSJEmSJEmSJEmSJEmSJEmSJEmSJEmSJEmSJEmSJEmSJEmSJEmSJEmSJEmSJEmSJEmSJEmSJEmSJEmSJEmSJEmSJEmSJEmSJEmSJEmSJEmSJEmSJEmSJEmSJEmSJEmSJEmSJEmSJEmSJEmSJEmSJEkjZkHbFZBU2N7AqcBJ03++N+3/hqeAW4BrgO8AnwOua7VGkiSNid2BjwEbiA53mNN64CPArrUcCUmSJsRjiSvstjv2bLoZeFQNx0OSpLF3KqNx1d/vbsBvV35UJEkaY0cBa2i/Ex80rQaOrPjYSJI0lrYBLqL9zruqdOH0PkmSpD5+l/Y77arTC6s8QJIkjaMLaL/Drjr9uNIjJEnSmDmS9jvrupJzAaQhsrDtCkjawjParkCNTm27ApIkDauLaf9Kva708wqPk6QBtR1GVNKMw4BfJbb/NfDZmupS1LOAAxPbHw5cUlNdJEkaSW8md0X9xnaquYW3kKvzm9qppiRJwys7+/+wdqq5hcPI1flH7VRTkqThdACwmeId6U9bqWV3vyA3CDionWpKms23AKThcCq5OTmfr6siJWTr8tRaaiEpZZgnAS4Btp/+893EwiJN2LnCvDYBd1WYXz9LgcXTf15DLCKj0XEO8LDE9kcCP6upLllHEeF+izoHeHhNdVE9FgHLp/+8nmiTm7AD1YWRngLuqCiv+Swm2mSAtcC6hspNaXIAsA0xW3h/YN/p/+43/ed9iIO1A7AdsKxHHquBjcCdxAm4Erh6Ol01679XEl92UQ8C/gR4HDNfWlVuA74AvI2ob1HbAocQx6hznDrHbm+insvZ8kSb6y5iEHI7cbw6x6iTfjP9d5l6qXp7ANdS/I7cZcB96qtOKZcDBxfcdjNxHl9XX3VUwH5Em3IA8X100v5Em7Iz0W7v0OPznQuz1dN/vpYt2+KV0+ly4J5EvfYH/hR4GtVekEHU8yvA24GfJD63kDhOnTb4ALY8ZkuBHdlyoDRX58Lsrul6zG6L5/ZfmxJ1K63OAcDBxCj/YcQVwv2ovnPtZTVxdfRj4Fzgu8TB7eZ5wEeIgUedbgeeApzd49+PYOZ4HUkcr8U9tq3aHcQz5R8T9TsbuKGhskfNfsTEt/2JH/y2FeT5UHLL5n4bOLOCcqv0BODExPb/BZxXQbn3EBcEVxGvFzqY7W4P4BHACUR7fCSwU0NlryfiW/yE+M7PBn7ZY9tHAF+k/rptAF4EfKrHv+9HnM+d/uv+9O7Yq3Y3ETOj03+dTbzyO9SWAE8CPkj8CNsOOjI3XQG8D3gsMUoDOIZm11u/GdhtuuzlxHPfjxKdbdvHZ276BfBXwElM9kpui4nv6RPEFWvb34upf7pu+rt6Os0NoIfRNsRv96/IT9JsIt1AtH2nMtOx7gHc2mAd1hOdO8QF4G8B7yc627aPz9x0FfAB4IlEXzs0jic6/dtp/yAVTTcTg4HvtlD2p4F/I+5StH0ciqZrgHcRQVwmxW7AX9Bsg2SqNt0K/D9gVybHYcA7id9s28e/aFpNtIn/0ULZ3yb6gpuH4DgUTbcRfe5DaMlCYoR9Xo8KmsYzbQb+m9yt3lGzHRGQZw3tH29TNWk1ETSpc+dvHJ1I/DYzr5KaRj+dS8yVaGw+33HELN62d9zUbvo6MU9hnNyXePbW9rE11ZN+Ssy1GSeHAp+h/WNrajf9iJrfrFlCPB9xhGnqpPXA6xju10mLeiZe9U9CWs14rEq4gPjtraf9Y2oajrQZeC81zBHYhxg9t72DpuFMX6b3q5uj4HTitZu2j6OpmXQP8HJG1zLiN9f2cTQNZ7qIeFW8Egcx8169ydQrnUtzrxVV6fl4V2sS02bgxYyeHYnfWtvHzzTc6dcUCLk9363b5cAPiGej0ny+DjyehoJYVOBRxPv0VbzLr9FzD/Hq11ltV6SghcREvye0XRGNhEuIOXs9o9HO9373vxCNpFTEwcRz9HParkgBuwNfJa6oNJkWEtE/P0nMDRh2ryceV0lF3BvYkwi61VW/OwBHEzML65rgdRcR0vQ64Kbp/95MTGrphEzcOF3+tsyEvF1CvKO9F/F+7z7ETNi6n0G/jt6hI58MvKrm8m8njtf1RBCNG4jjtRFYRVzNrCdedVpIrKOwhDhmuxMnwq5E2MpDqS+YxJ1ECONbasq/Kp8nXp+RziAmgQ6zexPBzHqF5R3UOqJ9uZpojzttTCeO/VrisclGoi3uhLxdRLTHnTZmD6J9qTqE71zvI+6GdPNA4G9qLn8NcbyuIdrhTj/WOVbriDZ5ijhGnRD3i4l2eE/imO1FHK+6vtfNwLFEVMGt9Lv1+Rqq6/yvJWIGnEtMULiE6uOA70vERz+GCK16PHEyVuUCImhEN4dWWA7EnIvzptNPgF8RJ1lVFhKhbA8jTo7O8dqlgrx3BF5GBNEZVo+nms7/HuBGqlmoagGwgmgktiUajnXEgGpjBfm3YVvifFhM3G3cSIQ5XUXs36AWE43ooI9wnkFECP3awDWqz0uprpO4Ffj+dDqfmRDKmyvKH6KTO5xYZ+V4oo05sML8fwV8o8e/ZdYdKOIG4lidR/QDl9I7tHxZexHt8VHEsXoo1UzkW0j05b+T+dAiItpQ2QkIm4BvAn9Eu4uW3J+4bXY2g0/0emSfcl47YN4biFm9pxOLTLRhATEY+FNiZbdB9uf7Ddc960eU37cziclje+Ny2sNgIXEX8MXEI52y3+sPm6540qBB135ELHh2DO29tnsA8AqirdvIYPvzuj7lPHLAvDcD3yP6jvsPvtul3YfovM9isLeUbiU5SD6iZEE3Eh3IvqV2t16HEGFByw5snt4n7/eUzPMqYvCwe2V7WZ0HEO+UlglZvJHhXT/gsZT7rn5KLFSi4XYisRBYme/40S3Ut4iFlOswVxNtU5udWC+7E23fVZT7rt7bJ+9TS+Z5G9FHFF3Vskn7EX3rjZTbt1QY91OSma8F3kRzq/0NYgWxFGT2B/XSPnl+NJnXncRIeBRCk+4K/AP5EeiebVS2gDLxxv+L5lYC0+CWE99Z9nv+dBuVLWA3cvuxCfh7Yt7AsFtEtIV3kNvHf+2T50uTeW0E3kH0DcNuKdHX3k1uH7vewe51CzN79baGmAyxLvm5Nqwl5iRk69rvdm/2ltpd03UYhWe7qyhX12G8Pb4DsSRzxneIZ8SjMEtcYTXxnX03+bmnMJwDvWx7vIFoj1fVUJeqbSTal56vqvXQr83NHq91xPFam/xcGzp1XZP8XOqY3J9ytxkuJp7FDeOPaCdipHkF5fbtGX3yfl/JPM8HnsOQLe84bXfiGViZJXA3MZzv1j+J3H7cwmhcRam7Xcmv5jiM79hvw8yM8ky6lnhWvtvWWbZuCdH2nU+5tvP9ffJ+Zsk8LyfmYQ1jQLPlRN9admnn1LotS5iZqVsmrSKWd3wm7b5nfS/gecRt37WU358p+k8CfMOAed8G/BNxBdJmSN09gZcQr9cMMkmn1+uSbfsbcvvxmnaqqQplJ+j+VTvVnNdFlP89biAeibyYat+MylpGtHH/zGCTzKeINreXQScB3k08Dnou0Ye0ZUeiD/04g/XHdxFvzKR8foAC55585wHvBp5NvDJXx9XhImLy4vOI0eH5lBs190on9yn79ArLWUvcuvwr4lW1A6nndvpi4EjgRcCHiEluVYXEfXsN9a1CZpb43Yz2+gYKy8g9L/1KO9Wc19uo5re5mRigfxB4ITHZN905FLCQCEX7NKIt+y6DX4TNTv0CIp1cYTn3EH3J+4i+5XDqmbu1LdE3PpvoK88j+s4q9uGMXoX2e45yMvCt8vvT1wbiVvylxPOMm4jZjTcyM+v8jjmf6QSWWEGMYncnbm113v8/iHpvOz+S3nEATgf+scay1xHH6nLitl4n8MTNROO2iS2foS1k5s7LTsTx6gSf2Id433R/6pmpv3Y6/6rfk63ClRR/zfKLwG/XVxU16ItEsK4irqRADPUW7EMEnqnjceEm4DfMvN/eCTJ2AzPt8J1sGSdgB6L9WEq0LZ3AbHsTb1wdRj0Di45XAB/o8W8nU1/fBXF39EoifsLs/usGZuZd3D7nMzsR/e1you/q9F/7EP3XwUSwoDqcRH4+DABforqR1Kink/scpyrvAIx6+ss+x6ltmVca/7SlOqp6b6X4956djNakd9L+73tYUlN3AEY9/Wef4zTvreUXEyMcqYjvE43tMFpI7jXVqiNVqj2Z73I5w/kGC0Qgn7PbroRGxtX0f3193hP9JmLSxrDHdVf7fkUE4KgiLG4dFpF7XTP7mo2GV+Z1uAUMb3yOjcQz4l+1XRENvVuIvrtvCPkiI90fE88QVlZQKY2nHxIR2Lxqlup1HfFbO7/timhorSTOkYvm27Dora5fEDPGhzVSltoxRcyOPZFqFyuq0vbEYiQvb7siGhl/ADyc4YxnAvFbOwH4c6pdwEej7wvEgkK/LLJxZtb8ncBpwOeI1zqqXNlJo+d8YrGnc9quyCxLiaVAj5mVjmA4gxJpeHWWkt1MzPS+YFb6McMRFXIjMd/m60S8/2NbrY3adiURuK3nK3/dlGkYzyDeDngp0QE4EJgsFxIDwM/S7tXHUmKp0WOAo7GzV/UWEufUEcDzp/9u7qDgQmJQ0FbY3XOAhwDPAv6Y+C1ocvwG+DsiuFLjofi3JULkDho5rum0jgj4kfnMyX2OQ+Y1wA3EUsmDLO/YdFpNRKM6pc8xqNN2RCjLFxCrgJ1NTDasc5/7vWak0ZJdHKZMuo5oB99KxBzYpYkd6+IU4re6hvr3uarUWT4+E/imytcAz6T+9qTKtJG4CH8mQ3TBsxvwMiLk5DCefHcSV60vJH6cByQ/f3Kffc8MADoLTuwLvJKITrduCI7P3HQL8AkiXneTq2QtI55vvgr4GLG0a5URHYumd9W9o2rMX9LOb2juoKDJsLIriN/uJ8mvh9BEWke0fa9kZvn4TKTAKgcABxB9wouIO9x3DcHxmZvWEAGtfo8Kl4+vcvRwExHP/p+m8z2MuC17AjGh5nCae792E1s/uzufLV9Ra2vN522JTu5qImTx+4nXjo4kjtPsZ9fZVQbLuoeIAjb7eP2QGJHXaRkzt/E76XDqiVCYNTQjaw2sre9yT2IBqidN//9mIprf3DkFdQQfWkVM2v408Xs6nC1/Z8dSb6S+ua5nZp/PBs4loph2LKe97+lexK30j06nTnt83HR6MNEeNxkf4hpiFv+5xPE6nxpu8dd1wO8hVga8mFgUCCI07VHAfsSIa99ZaX/ycdfvIjrRq6b/ezXx+sOVRKzrfs/kTqX/etJ12pZ4q+JpxPNDiFs6nR9Hx72JzrFzfPZj5njtR8xuz7idmWO0kpljdgVxvOpeCnM5W3f2hzEcnX0317ddAVVmWL7LhcQ5fxix0AzMDAouZMt5BVUOCjaxdXu8PTFh9mC2bFc67czOW2fT11q2bFdWMtM2X0T/WDIPJmavtzUAOIuI8/+l6f+f3R53wg2vINqvA4j2eF8ijG+nbc7eJV3N1m3xVdP//zPirk3tmjzgd9I7ln7HUmJUuoKo287E7Y87iC9lNTEKGqSzejFxl6LNjmc/4lg8Efhej21uAb4xTz7LiOfjOxLHa0dm1gXYQNw2upvmg/MsJwZ7ncl5w97Zd3Nt2xVQZYZlANDN7EHBadN/N0X3OwV3VljuWiJy5/f7bLOYaJM77Uwn/v+dxEXency0M2WdRHS8bb5yuQMxAHkh8cikm1VEW92rvYYYVC0h9mURM/H/byeO1yqiLb67VwZNG7bbnHdPp7kLKVTlIcSIrkxH1O9YlVkzfgXxvOloync2a6ZTXceriE5nP/fKfljDqUrDbgGxQMx92HJQcDlbDgoupNpBwVzrp1Nd7cuexCOKMp1/v/kUZSI5bgv8CxFl8YJ5tu1l7XRqsz1OGbYBQJ22IZ7vlF1xae8+/7Z/yTx3I17heHbJzzdtBTOdfefq3s5eqt8CYrnYQ4nJfdDOoKBKf0+sVFrGAX3+bd8+/9bPYmIQcBRxbMfeJA0AnkVM5Cirrgl5zwDuD/y8pvzLmt3Zd9J9sLOXhkWvQcEVbD0omLu8etuOJOZBlVVXB/1Aol6fryn/oTJJA4DfGfDz/Z79XAD8bsl8FxJBRt5Y8vNVWMHWEfSafGtDUjUWAIdMp9l3FmfPwr+AePbfZvju5zPYRVW/tRAGXTHxBUzIAKCp18zatgS4jfzM+Y5bgF37/PtiYoJi2QHVT4kOuAmT0tlvZMuJVD8lZvsW9Vzg32uol5p3GvCpxPZHAw8A7ksEoDqB/Kz4UdDmoOBnxJ3PMu4hJib2e035VsoHY1pNzDGo+zXo1k3KHYD9Kd/5wzxrKhMTZf4WeEPJ/A8jBmNV39aa1M6+W9yHJt951mj7BTHrfra92PJ3NA6DgrlxCqCZQUFnkmNZ72T+zvnlwGdK5r+cmEdwRcnPa8icSLnoS5vJdeofL1nOFIOHDl1BBBJ6NfGu78WMVrjhomkDM+8zv3p6n4tM7FycLOe07tloBJ1G7rsvOljci4jw91Yi4t8wRtyrIs2NaNjvbmgRuwxQl48lynkz0YaXKeeEAfZPQ+Zx5L78O4nbxYeVKOtRxMj57mSZ+yTKmJTOfj3lOvtuHABMrroGAN1M6qBgt8Qx2idZ1t3Aj4BHJsrouC8RcyUb3vcxJcoaOZPyCCDrcMoHD/kmcYvw0cRSnYPagZgxO+638Tew9StNTYQjlqp0HTOdY8fcxwcPo73FgqpS5PHBD4gQ8YN6CvMHRevlF8TaAPsQ0fY0iwOA4TIpnf1qIvzw7MbiV8RdDGncOCjYclCgIeEAYHicRcTltrOXxl+RQcFDaXYFwTp0GxRUcVdAFXAAMDwObbsCFVhFLPwxu7O/hJiIM2pOo7lXM5u2CDiQmclcNwO/Jl6vGkf3bbsCBc0dFCwk2oXZg4KjiDuFoywzX0A1cgCgslYRr0rN7uwvZTQ7+26ePJ2ktmwmBtCXMBPHoBP9b/ag4GhGf1CgFjgAUBF3sWVnfyHj1dlLo2KK+O1dykygqrmDgqOn045tVFCjwwGA5rqLmbXJO/+9DDt7aVj1GhQcwtZ3ChwU6H85AKjPkrYrUMAqIkTu7Nv4v8TOXhp1U8TA/TJiyd2OuRMNj6fccuZNGoW2dCQ5AKjPgW1XYA47e0lF3j4YtkHB/m1XYFw5AKhPm8f2DmZu33du5V9OXBVMqnF7vVL1mbRzZe6gYAHxSvLRbDkw2KmV2tlP1cYDW59rGirnDrZ8Xn8BsYjFJHf23XinQ0VN+rkyRVwwXM6WC+oczNZzCppYEOm6BsqYSA4A6nN7TXnO7ug7nb0k1e2K6TR7UHAQWw4KjqH6QUEdbalwADDMbmfLjv4CIliLJA2LX0+nz876uyYGBaqAA4Dh8T3gHGau8O3sJY2iboOCA5kZDJwAPKKFemkOBwDD47k0N29A87uJWMdgXOwOLCu47Rrgxhrr0rTlGH62bVdOpzNwZb6h4QBA6u4PmQmqMg6+ADy14LZfB55WY12adhozoXQlTZu0110kSRIOACRJmkgOACRJmkAOACRJmkBOAhwejwBubrsSY2xR2xXQyDgF2Nh2JcbYrm1XQMEBwPBwlrI0HL7cdgWkJvgIQJKkCeQAQJKkCeQAoD4e29G2XdsVUGX8LkfbgrYrMK7spOpzQNsV0EAOarsCqswhbVdAA9m37QqMKwcA9VnRdgU0EL+/8VF0DQQNpx3brsC4cgBQn1vbroAGclvbFVBlXE9+tPl6dE0cANTHlf1G25VtV0CV8bscbTe0XYFx5QBA6m5z2xVQZTa1XQFpGDkAkCRpAjkAkCRpAhkKeHicgM+66rQd8Mu2K6GRcASwoe1KjLE9gHParoQcAAyTlThxsE6L266ARsaVwPq2KzHGHFwNCR8BSJI0gRwASJI0gXwE0N2ZDL4e+A5VVESVyb4KZvS48bE0ub2vDQ6XfwTuGjAP14PoYlIGAGuT2x9ZSy36y9ZROfcQ7/YXvet1MvDh2mqjJp2S2HYTca6oPuuS2x9aSy36m4j2eFIeAdzYdgXmsQFDz9btSHLn+wPqqogal/kutwEeVFdFBESY9EHvsNbt+rYr0IRJGQCsZLhn9V4GTLVdiTH3tuT2hzA5v49xtpD8yo5vr6Mi+l9TwOVtV6KPtUzIG1mT0sDdDXy37Ur08ZW2KzDmjgOekvzMUuBxNdRFzXo8+fkcTwKOr6EumnFm2xXo41sM9wWjSvg/xMhz2NJm4Oga91vwNcp9Nz9hfAbJX6D4fn+hpTpWbRvgp5T77r/RQn0nyTFE29d2+9stPa/G/VZLtgEuof2Ta1wb22H1cAb7fv6i+SrXYhIHAH/JYN/9I5uv8kT5b9pvf+emS5icyfET5yRi8knbJ1kn3QYcWOse69sM9h1tBk5vutI1mLQBwMsZ/ArTcLX12g+4mfbb4U7aSFwwaIy9kuG49bQWeGzN+zrpHk9139f7yL9PPkwmZQCwlPiuqvreH99s9SfObxFtYdvt8WbgFTXvq4bEC4iJgW2dbDcSi/+oPguAH1Dt93Yt8AfA7g3uR1XGfQCwG/HdXEu13/kFxLmk+jwCuIn22uM1wHNr38shNMkn9oHAO4Gn0lyUqFXAR4G3Arc3VOakehrw+Zry3kxMEFxJ9xgTi4D9gV2J39gdxAIzbQYXeSxwQMFtf0NMnGzLEqKuuxDH+hbgKrq/O747cSv5gdQ3YfNU6juXFHYh2sUXAcsbKnMD8b2+kTi/Js4kDwA6diZuQx0I7EX1g4G1wNXEu/5fZ0IiTLVsAXAhBnRRNS4i3tSZarsiE2B7YrB6KLDP9P9XaQNwHfBrYpDrhZg0Zp5Ce7cTTeOZsnEkpKHnHQCNo/OBY9uuhMbKj4AHt10JqUrjEuRE6ng8dv6q3rHAE9quhFQlBwAaN3+S3H4loznrXYP5AvHdZ2TPLUlSQx5D/tnuK4gokR8s8VnTaKYPTH/nryjxWWN3SNIQ+i65xvwa4pWzjhcQ7wS33UGZ6klrgVczYwlxDmTy+B6SpKFyMvkO4VVd8jkc+GaJvEzDnb4BHMbWXlUiL9cIkKQhcha5Rvx6+r9j/FRi5nfbHZdpsHQ+8Nv0tj1xLmTy/Faf/CRJDXoY+Y7hNQXzfjjwISLiX9udmalYunH6Oyu6sMtrS5RxYsG8paFlHACNgzOJaI5F3UxEflyT+MwC4P7A8cBDgBcSE8kyfgPcOufvjqb473AlUfdBbQ/ci5k7IGun61VFlMpdidC8RUwRERtnuxfFQxZ3bAL+lVj74fvAz6fzLmoZEap518RnvkbunJMkVexI8qs7vmHAMr+ULG+KuG3craNfl8jj5QPWuwkvp/j+rOuRx9cTeXTSFwes9xtLlHn0gGVKkgbwSXKN9i3AigHKe1KyvCli5clDeuTnAGBrBwKrE/l00iCBepaRX5HukwOUJ0kawL7E4h6ZRvv/DlDedsAlyfKmgNf3ydMBQHdlrsgvAxYPUPe3JMvbSKz6KElq2HvINdh3ADsNUN6bk+VNEcsGL+qTpwOA7rYl5gdkj/cgj3d2AG5LlvfuAcqTJJWwC7CKXGP9tgHK27tEeZuISYP9OADo7cHAPYn8pojvaO8B6v+OZHmriYmLkqSGZK/G1wK7D1Dep5LlFb06zAwq/miA+jflj8h11vN5byK/TvrEAPXfnThXMuW9aYDyJEkJ2wJXk2ukPzBAeSeQf9PgBmDHAnlngtB8eIB9aMpHKL4/1xbIbwfgukSeU8R3ddIA+/ChZHnX0v8xjySpIs8h10BvAg4tWdY2wEXJ8qaIOAFFnJfI83YGm8NQt52JeRZF9+fcgvm+OJFnJ/2YfJyGjvsQ50ymvGeVLEuSlHAOucb5jAHK+r1kWVNEMJqiwX2yV5ufI+6ADJtFxBK7mX0peldmIRHkJ/s9vHSA/fl8sqyzByhLaoWRADVqjiXiu2ccT3QgWcuIV8v2THxm83R5Rev428B/Juv1I+D9wKXEq2hZK4jHE514CKuIK/fVJfJaRFwxvwo4JvnZpwD/XXDb44i7JQsT+V9H1C0T8bHjoRS/Q9FxLHBBibIkSQV8nNyVWbYRn+3PkmVNAf+cLGMZ+Uln45DuBpYmj1VmfkEnvSVZxmzfT5b1bwOUJUnqY3dyr81NEfMFytgNuCtZ1u3Tn8v6TLKccUifLnGcdic3x2AKuJNcjP/Znpssax2DvWkiSerhTeQa5EFmZ/9Dsqwp4jZ4GfcjP+lslNM9wH1LHqvMa4ad9L6SZS0i/7bJG0uWJUnqYSFwBbnGuGzY30PJhxj+OYNNzvtEsrxRTh8b4DgtAi5OlrceOLhkednwwFeQm6cgSZrHb5FriNf1Cz+tAAASuElEQVRR7nY8xFsD2U7t8SXL6tiL/Pvuo5iuBfYY8Fg9sUS5ZR45QDw+yM7ReEzJsiRJXXyOXCP8kZLlPIR80J+zSpY110OJq9W2O+m60gbgERUdq28ly95MhBYu46PJsj5XshxJ0hx7kr8lf1zJsr6dLGcz8fpXVV5MPv79KKR7KB4cqYgH09xA7bhkORvIvToqSerh/5JrgC8qWc6jkuVMUc+a8I8lZq+33WlXlVYBT6r0CIVPl6jLySXLyq5M+OaS5UiSpi0gP/nv90qW9b1kOeuBg0qWNZ+jiImFbXfeg6afAg+q+Nh0HEz+kcl3SpaVWeVwijhnDbQmSQM4kfzV5g4lynlMspwp4O9K7lNR2wGvJibOtd2RZ9M1wCupf5GcMqsFnlKinBXk40JUNd9BkibSP5NrdD9YspzvJsu5nebWgV9EhM39FyI08TDGDNhEhCb+MPBkmluv4N7kgwOVjdufPRezUSElSdO2J9+4H12inMcmy5ii3YAvmRUE56briY7pdODp0+n06b/LLE1cVadahewckSng0SXKOSZZxp3EOSxJSjqNXIN7Yclyss/+bwaWlyxrUCcXqF+3dAvwEvoHqVlIrKB3a8kyTqxqJ5OWATcWrGMnnVOyrOzS0KeVLEeSJtpXyDW2f1iijMcly5gCXlt2hyrwxT716pV+Qu61tL2IyXvZcrKrGlbp9X3q1SuVCdjz2mQZXym7Q5I0qfYklrot2tBupNxCLNnb6TeQX8WuKruSOyadzn/nEmXtTH4QsIF4Jt+GMncByqwUuQe57+AeYkAlSSroD8k15kXXlZ/tlGQZU8RiNG05vU+9uqVVwGEDlHcEsDpZ5ssGKG9Qr+tTr17ppBLl/E+yjDbPGUkaOeeQa2SfWaKMrybLuJ72rv4hHw75DX3yWkZEMHwQ8YpbL29OlvnZUntWjaXEHZpMfb9copxnJcsoc6dBkibSPuTCvN5Bfrb1A5NlTFFujkFVFgA39ahXt3Qr3Tv2vYCPs2UAnfVERMN9umy/A3BbotwbBt3RAb2G4nXtpKOSZSwhd0w2A/sPsE+SNDGya75/qEQZn0qWcR3tvtK1d4969Uof6JLHEfR/1e+G6W3m+lCy7Dbj4G9P/nXGT5QoJ3tMXlN2hyRpkpxLrnHNRnY7kPxkujav/iH/+t9T53x+W+DiAp/7GbDNnM8+PVl22xHwsgPIjeSv0LPzR84bZIckaRLsS+7W/A1s3WHN5x8S+U8Rt9Pbeu+/43nk6rz3nM9nOvGnz/nsPsmy2373fSkRqyFT5/cmy1hI3BUqmr+PATR0+gUFkdrwbHKLqJxBhKEtajfgRakawfuI2fBtygxApoj5ArM9KvH5udveSHRgRfWbVNiEu4F/TH7mJeReYdwMfCGx/QLgGakaSTVzAKBh87Tk9tlZ539A7ln+GuKOQduWJLZdQ9zWni3Tuc3ddiPRqRaVqWtd3k+uzkuBVyTLyJ57c++sSK1yAKBhsivwkMT2N5CLQb+Y/HvqHybC6LZtbWLb5WzdCV+f+Py1c/5/Cbk7EJmOty63AB9Jfub3iXOkqO+SO67HUy5YlVQLBwAaJk8k9zz/M+Ru/z+HXAO8EXh3Yvs63ZXcfo85//8/ic/O3TYbyW5Vcvu6/C0Ria+o3cjFk9gMfD6x/UIi9LQkaY7Pkpu4lV185vxk/h8faG+qdQK5uj+3Sx7fLvC5b3b53O8kyz5+sF2t1CfJ1f0HyfxPTubfZqAkSRpK2xFXuUUb0lvJrTn/sETenVnbDxpwn6q0K7n6/1uXPPagf3z/nxJXwXN9Iln2vQbc1yodST7gU+Yx1DbE44aiea8i95hBksbeY8g10tmr82zgnzMH2pt6rKR4/dfSPSDPMuDPgKtmbbsSeBvdn/PvQTzTL1ruyoH3snpfI/fdZwMDZe8ylFmFUJLG1vvINaKZZ7V7EivVZfJ/wqA7VINsR/PX8+S3y3Tq593JMj+W3KcmPJncPmxg6zgK/TwnmX825oAkjbUryDXQOyby/vNE3lPAZQznBNnss/iNxNyBsk4kJtFlymw7CFA3C4HLye3HWxP570RugHnFgPsjSWPjEHKN8zcSeS8iHxv+1YPuUE1WkLsdP0Xckj+wRFkHAVcny1pD+xETe8mGB76OOHeKOiuZ/yGD7pAkjYOXk2s8X5XIOxvH/i5ydxea9nFy+zNFvNefmdB4NLkwt530r4PsWM1WAHeS25+56yn0k12FMBuPQpLG0mfINZ4HJ/L+cjLvvx94b+r1IPId8xRxi/pdxO3qXnYm5g1k50tMETPtH1DZXtYjuwZEJnbCocm8PzPw3kjSiFtIbuGWyxN570vuGfZm4PBBd6gB/0W5QcAUsA74T+ANRKyA507/+b+A9QPk+7la97gah5J7JXATsF8i/ysTed/CcM4zkaTGHE2uo/lQIu+3JvP+6qA705CDiY68bGdddVpPdK6jIPtK4J8l8v5wMu+jBt4bSRphf0yu0Sz6+t9CtnzXvUg6tYodashbaL/j76Q31byvVXomuX1bSfHw1Kcl835tFTskSaPqTIo3mJuIiHhFPDGR7xSxsFBm1nfbtgG+R/ud/7cZrVvZ2xHLG2f2sWj8/t3IPWL4chU7JEmjaDvi1bGiDeaFibw/n8h3ipggN2p2Jf9+e5XpSkZzdbu/JrefZyTy/kki39WM1qBTkipzPPV00ruQe0a+GbhPFTvUgvuRv6KtIt0AHNHA/tXhPuSu1NdTfH2Dv0vkOwUcV8UOSWWM0q07jZ+HJrfvtlJdN88ht+DKd4BLk3UZFhcTK9Jd22CZVwMnAb9ssMwqXUo8PilqO+AZBbcteo52PCy5vSSNhcz7/xuApQXzPSeR7xTdl84dNXsB51L/lf/ZdF9kaNQ8n/x+F7GC3Kun/1HJ3kjSiMmEmj2/YJ4Hkbu9exuwpJK9ad92wDsoF8inyG3wP2d8nllvD9xO8f3fTJxbRfw4ke/VleyNJI2Q/ch1QO8pmO+fJvP9YCV7M1weAHyJ6jr/LxJzDcbNP5E7Dn9SMN+/T+abCTYkSSMvu4Tqswvm+6tkvg+vZG+G03HAR4nZ5tlOfxXwEeDBjde6OSeSOyaXAgsK5Pu8ZL7PqWqHJGkUvIfqr5KOS+b5a4o16KNuGREX4T3At4gZ/HOPxfXEinbvBp5A8fkWo2wBufC9UxSbtX9gMs/3VrVDkjQKfkDxBrLoc9K/SeQ5Bby9ml0ZWTsy3CsfNuEd5M6ZvymYb2Y1xaLzWyRp5G1HbuGZTxfIcwHwm0SeU4zGwj+qV3YVv5UUu2t0RiLP9cRvQmqUcQDUhvuSa/DOK7DNccD+iTx/SMwX0GS7jNwV+L7AsQW2OzeR53bEb0JqlAMAteGBye1/WGCb7EI+/57cXuPrU8ntiyxI9YNkng9Kbi9JI+ndFL89uglYXiDPKxJ5bsZXrzRjH3KxI65k/scAy4hzt2ieRV9zlaSR9m2KN4xFws0+OJHfFMWjumlyZKMoHlMgz0sS+X27sj2RCvIRgJq2ADgysf1FBbZ5erIOmdXdNBk+m9y+yCOnIuduxwOZjFdSJU2w7DvSry+Q5y8S+Xn7X93sS+4xwM8K5PmmRH5TxG9Daox3ANS07GSn+a6iDiK3LO15xKtc0mxXU2yyacf9gUPm2SZzBwCcCKiGOQBQ0zK3/wF+Ms+/PzmZn7f/1Uv23HjCPP/+42R+2bdjJGmkfJrit0SvKZDfNxP5TTH/VZsm18HkzqWvF8jz+kR+RQJeSdLIupDiDeKX58lrR3JL315c7a5oDP2S4ufTeuYPpXxmIr/sHQNpID4CUJMWEKFXi5ovUt9vkVuf/r8T22oyZc6R7YhzsJ8ir7F2HIpvAqhBDgDUpL0pFtSn45J5/v1xyfK/mNxekyc7SHz0PP9+aSKvZcRvRJLGzinknrGePE9+KxN53QRsU+XOaCxtA9xM8fPqinnye1QiryniNyI1wjsAatJ9ktv3u3q6H/HudlFfIUKzSv1sIs6Vog6i//v7893Fmuuw5PZSaQ4A1KRM47aKmEHdy3zPXucqMmNbAvhGcvt+V+3XAqsTeWUHyVJpDgDUpEzjdilxS7SXxyTL/lZye02u7ADgUX3+bQq4PJGXAwBJY+kyij8L7bdE62JgTSKvX1S/KxpzmdcBb6T/7P1M7IvMYEEaiHcA1JSF5GLw93t2ehywNJFX9opO+mZi292I0MC9ZOYB7IeTVdUQBwBqym7Ee9NF9bsSOilZ9lnJ7aXMAAD6PwbIXNUvAnZPli2V4gBATcmuwHdVn387OZHPJuA7ybKlb5F7a6TfACC7+NQ+ye2lUhwAqCmZV/YgVmfrZhFwfCKfC4Dbk2VLd5ALzXsSvaNS9jqXe8n+VqRSHACoKZmrms30fgXwwUTEtKKyt3KljszckRXEudnNtfR/o2Uu7wCoEQ4A1JTMVc0NxCI/3ZyQLNcJgCorO3jsdW6uJyJRFuUdADXCAYCakmnU+i0DfFwin3XAeYntpdnOJs6hovqdm5nHAA4A1AgHAGpK5rZmv8ay123Wbr4PrE1sL822DvhBYvuH9Pm3zADARwBqhAMANSXzFkCvxnIPYP9EPt9PbCt1kxkA7Avs1ePfvAOgoeMAQE1YSHTeRfV6BJC5/Q9wfnJ7aa4fJrfvdYcqMwDYE9tmNcCTTE3YEdg2sX1VA4Bs4y3NlT2Hej0GuDaRx7bATslypTQHAGrCvZPb39zj7/s9Y53rOvpPJpSKuJo4l4rqNUjtdU73cq/k9lKaAwA1IduY3drl7xYAxyby8Pm/qpK5C3Ac3dvVbud0Pw4AVDsHAGpCFQOAw8ndFvX2v6qSOZdWEOfqXLcky3QAoNo5AFATdkluf1uXvzsqmYcDAFUley4d3eXvsncAso/NpDQHAGpCpjFbC9zd5e/vl8hjM7EGgFSFHxLnVFHdztW7ycWk8A6AaucAQE3I3AHodaWUGQBcBtyV2F7qZxW5JX17nauZxwAOAFQ7BwBqQuYOQK9GMjMAuDixrVTELxLb9jpXM48BfASg2jkAUBMyVzPdGsklwIGJPBwAqGqZc+oAuq9YmRkAeAdAtXMAoCbsmNi22wTAI4BtEnk4AFDVfp7YdiFxzs6VeQSQnTgrpTkAUBMyUQDXd/m7+ybLy9yulYrIDiq7PQbodm73khnwSqU4AFATMg1ft8VUur1W1cs9wCWJ7aUiLiHOraK6vbaaeYx1U2JbqRQHAGrCjYltj2fL258LgCckPn8ZsCGxvVTEBuLcKupxbNm+7kZuKesbEttKpTgAUBN+ldh2KfDOWf9/Ot0jq/Xi+/+qy48S2x5GnLsQg9h3EpNZi1qZ2FaShtajgKlk+hrwceK2a+Zzr2honzR5Xk7uXNwEfBI4K/m5KXLrXkjS0FpMBObJNoJlUiZegJRxP5o5h2/Cu7OSxsjHqL/hNP6/6nY+9Z/H/9zY3khSA46j/obzZY3tjSbVS6j3HL6HmD8gSWPli9TXcF5GPGqQ6rQ9sS5AXefxJ5vbFUlqziHAauppOB/f4H5osj2Wes7h24D9G9wPSWpUHbdQ39voHkjwAao9hzcDT2l0DySpBe+iuobzKxg2Vc3bFvgS1Z3Hb2m2+pLUnlcT70kP0mh+mngmK7VhGXAGg53Dm4Dfb7riktS2pwHXkG801wCvbaG+0lwLgDcA68ifx1cQIYMlaSItA95OrJU+X4O5Dvgw3RcMktq0H/ARYs2A+c7jW4G34t0rtWxB2xWQpi0CHgk8kVg1bW9gO+Ba4Grg68Tz/lVtVVAqYCfiqv7RwL7EeQxwM/Az4JvAV4nBrCRJkiRJkiRJkiRJkiRJkiRJkiRJkiRJkiRJkiRJkiRJkiRJkiRJkiRJkiRJkiRJkiRJkiRJkiRJkiRJkiRJkiRJkiRJkiRJkiRJkiRJkiRJkiRJkiRJkiRJkiRJkiRJkiRJkiRJkiRJkiRJkiRJkiRJkiRJkiRJkiRJkiRJkiRJkiRJkiRJkiRJkiRJkiRJkiRJkiRJkiRJkiRJkiRJkiRJkiRJkiRJkiRJkiRJkiRJkiRJkiRJkiRJkiRJkiRJkiRJkiRJkiRJkiRJkiRJkiRJkiRJkiRJkiRJkiRJkiRJkiRJkiRJkiRJkiRJkiRJkiRJkiRJkiRJkiRJkiRJkiRJkiRJkiRJkiRJkiRJkiRJkiRJkiRJkiRJkiRJkiRJkiRJkiRJkiRJkiRJkiRJkiRJkiRJkiRJkiRJkiRJkiRJkiRJkiRJkiRJkiRJkiRJkiRJkiRJkiRJkiRJkiRJkiRJkiRJkiRJkiRJkiRJkiRJkiRJkiRJkiRJkiRJkiRJkiRJkiRJkiRJkiRJkiRJkiRJkiRJkiRJkiRJkiRJkiRJkiRJkiRJkiRJkpTx/wF4ukY1fpJcHAAAAABJRU5ErkJggg==;" vertex="1" parent="1">
          <mxGeometry x="400" y="200" width="90" height="90" as="geometry" />
        </mxCell>
        <mxCell id="E44d1Qz_v7KlyIdaOP3Y-4" value="" style="endArrow=classic;html=1;rounded=0;entryX=-0.3;entryY=0.133;entryDx=0;entryDy=0;entryPerimeter=0;" edge="1" parent="1" target="E44d1Qz_v7KlyIdaOP3Y-11">
          <mxGeometry width="50" height="50" relative="1" as="geometry">
            <mxPoint x="280" y="150" as="sourcePoint" />
            <mxPoint x="280" y="450" as="targetPoint" />
          </mxGeometry>
        </mxCell>
        <mxCell id="E44d1Qz_v7KlyIdaOP3Y-5" value="" style="endArrow=classic;html=1;rounded=0;" edge="1" parent="1">
          <mxGeometry width="50" height="50" relative="1" as="geometry">
            <mxPoint x="280" y="360" as="sourcePoint" />
            <mxPoint x="510" y="360" as="targetPoint" />
          </mxGeometry>
        </mxCell>
        <mxCell id="E44d1Qz_v7KlyIdaOP3Y-6" value="" style="endArrow=classic;html=1;rounded=0;" edge="1" parent="1">
          <mxGeometry width="50" height="50" relative="1" as="geometry">
            <mxPoint x="280" y="360" as="sourcePoint" />
            <mxPoint x="160" y="480" as="targetPoint" />
          </mxGeometry>
        </mxCell>
        <mxCell id="E44d1Qz_v7KlyIdaOP3Y-9" value="Y" style="text;html=1;align=center;verticalAlign=middle;resizable=0;points=[];autosize=1;strokeColor=none;fillColor=none;" vertex="1" parent="1">
          <mxGeometry x="510" y="360" width="30" height="30" as="geometry" />
        </mxCell>
        <mxCell id="E44d1Qz_v7KlyIdaOP3Y-10" value="X" style="text;html=1;align=center;verticalAlign=middle;resizable=0;points=[];autosize=1;strokeColor=none;fillColor=none;" vertex="1" parent="1">
          <mxGeometry x="155" y="498" width="30" height="30" as="geometry" />
        </mxCell>
        <mxCell id="E44d1Qz_v7KlyIdaOP3Y-11" value="Z" style="text;html=1;align=center;verticalAlign=middle;resizable=0;points=[];autosize=1;strokeColor=none;fillColor=none;" vertex="1" parent="1">
          <mxGeometry x="290" y="420" width="30" height="30" as="geometry" />
        </mxCell>
      </root>
    </mxGraphModel>
  </diagram>
  <diagram id="uVRzcu4-7Yu--kTxaGeZ" name="Seite-2">
    <mxGraphModel dx="2074" dy="1114" grid="1" gridSize="10" guides="1" tooltips="1" connect="1" arrows="1" fold="1" page="1" pageScale="1" pageWidth="827" pageHeight="1169" math="0" shadow="0">
      <root>
        <mxCell id="0" />
        <mxCell id="1" parent="0" />
        <mxCell id="tsvlCH98z1KSzA6yaUKa-1" value="" style="shape=image;imageAspect=0;aspect=fixed;verticalLabelPosition=bottom;verticalAlign=top;image=data:image/png,iVBORw0KGgoAAAANSUhEUgAAAgAAAAIACAYAAAD0eNT6AAAACXBIWXMAAA7DAAAOwwHHb6hkAAAAGXRFWHRTb2Z0d2FyZQB3d3cuaW5rc2NhcGUub3Jnm+48GgAAIABJREFUeJzt3Xe8HFd58PGfZMuSVdzAvTdsUwwuGIPBNqaEHsA0A+EFAgSTAAkQ2ksSArwJpNGSAAmBEEoIGEgIAdNMcwGMjSkG3DCWey+SrGbpvn88d3Ovrnb3zjM7Zcvv+/mcj2Vp9pwzs7PnnJk58xyQJEmSJEmSJEmSJEmSJEmSJEmSJEmSJEmSJEmSJEmSJEmSJEmSJEmSJEmSJEmSJEmSJEmSJEmSJEmSJEmSJEmSJEmSJEmSJEmSJEmSJEmSJEmSJEmSJEmSJEmSJEmSJEmSJEmSJEmSJEmSJEmSJEmSJEmSJEmSJEmSJEmSJEmSJEmSJEmSJEmSJEmSJEmSJEmSJEmSJEmSJEmSJEmSJEmSJEmSJEmSJEmSJEmSJEmSJEmSJEmSJEmSJEmSJEmSJEmSJEmSJEmSJEmSJEmSJEmSJEmSJEmSJEmSJEmSJEmSJEmSJEmSJEmSJEmSJEmSJEmSJEmSJEmSJEmSJEmSJEmSJEmSJEmSJEmSJEmSJEmSJEmSJEmSJEmSJEmSJEmSJEmSJEmSJEmSJEmSJEmSJEmSJEmSJEmSJEmSJEmSJEmSJEmSJEmSJEmSJEmSJEmSJEmSJEmSJEmSJEmSJEmSJEmSJEmSJEmSJEmSJEmSJEmSJEmSJEmSJEmSJEmSJEmSJEmSJEmSJEmSJEmSJEmSJEmSJEmSJEmSJEmSJEmSJEmSJEmSJEmSJEmSJEkjZkHbFZBU2N7AqcBJ03++N+3/hqeAW4BrgO8AnwOua7VGkiSNid2BjwEbiA53mNN64CPArrUcCUmSJsRjiSvstjv2bLoZeFQNx0OSpLF3KqNx1d/vbsBvV35UJEkaY0cBa2i/Ex80rQaOrPjYSJI0lrYBLqL9zruqdOH0PkmSpD5+l/Y77arTC6s8QJIkjaMLaL/Drjr9uNIjJEnSmDmS9jvrupJzAaQhsrDtCkjawjParkCNTm27ApIkDauLaf9Kva708wqPk6QBtR1GVNKMw4BfJbb/NfDZmupS1LOAAxPbHw5cUlNdJEkaSW8md0X9xnaquYW3kKvzm9qppiRJwys7+/+wdqq5hcPI1flH7VRTkqThdACwmeId6U9bqWV3vyA3CDionWpKms23AKThcCq5OTmfr6siJWTr8tRaaiEpZZgnAS4Btp/+893EwiJN2LnCvDYBd1WYXz9LgcXTf15DLCKj0XEO8LDE9kcCP6upLllHEeF+izoHeHhNdVE9FgHLp/+8nmiTm7AD1YWRngLuqCiv+Swm2mSAtcC6hspNaXIAsA0xW3h/YN/p/+43/ed9iIO1A7AdsKxHHquBjcCdxAm4Erh6Ol01679XEl92UQ8C/gR4HDNfWlVuA74AvI2ob1HbAocQx6hznDrHbm+insvZ8kSb6y5iEHI7cbw6x6iTfjP9d5l6qXp7ANdS/I7cZcB96qtOKZcDBxfcdjNxHl9XX3VUwH5Em3IA8X100v5Em7Iz0W7v0OPznQuz1dN/vpYt2+KV0+ly4J5EvfYH/hR4GtVekEHU8yvA24GfJD63kDhOnTb4ALY8ZkuBHdlyoDRX58Lsrul6zG6L5/ZfmxJ1K63OAcDBxCj/YcQVwv2ovnPtZTVxdfRj4Fzgu8TB7eZ5wEeIgUedbgeeApzd49+PYOZ4HUkcr8U9tq3aHcQz5R8T9TsbuKGhskfNfsTEt/2JH/y2FeT5UHLL5n4bOLOCcqv0BODExPb/BZxXQbn3EBcEVxGvFzqY7W4P4BHACUR7fCSwU0NlryfiW/yE+M7PBn7ZY9tHAF+k/rptAF4EfKrHv+9HnM+d/uv+9O7Yq3Y3ETOj03+dTbzyO9SWAE8CPkj8CNsOOjI3XQG8D3gsMUoDOIZm11u/GdhtuuzlxHPfjxKdbdvHZ276BfBXwElM9kpui4nv6RPEFWvb34upf7pu+rt6Os0NoIfRNsRv96/IT9JsIt1AtH2nMtOx7gHc2mAd1hOdO8QF4G8B7yc627aPz9x0FfAB4IlEXzs0jic6/dtp/yAVTTcTg4HvtlD2p4F/I+5StH0ciqZrgHcRQVwmxW7AX9Bsg2SqNt0K/D9gVybHYcA7id9s28e/aFpNtIn/0ULZ3yb6gpuH4DgUTbcRfe5DaMlCYoR9Xo8KmsYzbQb+m9yt3lGzHRGQZw3tH29TNWk1ETSpc+dvHJ1I/DYzr5KaRj+dS8yVaGw+33HELN62d9zUbvo6MU9hnNyXePbW9rE11ZN+Ssy1GSeHAp+h/WNrajf9iJrfrFlCPB9xhGnqpPXA6xju10mLeiZe9U9CWs14rEq4gPjtraf9Y2oajrQZeC81zBHYhxg9t72DpuFMX6b3q5uj4HTitZu2j6OpmXQP8HJG1zLiN9f2cTQNZ7qIeFW8Egcx8169ydQrnUtzrxVV6fl4V2sS02bgxYyeHYnfWtvHzzTc6dcUCLk9363b5cAPiGej0ny+DjyehoJYVOBRxPv0VbzLr9FzD/Hq11ltV6SghcREvye0XRGNhEuIOXs9o9HO9373vxCNpFTEwcRz9HParkgBuwNfJa6oNJkWEtE/P0nMDRh2ryceV0lF3BvYkwi61VW/OwBHEzML65rgdRcR0vQ64Kbp/95MTGrphEzcOF3+tsyEvF1CvKO9F/F+7z7ETNi6n0G/jt6hI58MvKrm8m8njtf1RBCNG4jjtRFYRVzNrCdedVpIrKOwhDhmuxMnwq5E2MpDqS+YxJ1ECONbasq/Kp8nXp+RziAmgQ6zexPBzHqF5R3UOqJ9uZpojzttTCeO/VrisclGoi3uhLxdRLTHnTZmD6J9qTqE71zvI+6GdPNA4G9qLn8NcbyuIdrhTj/WOVbriDZ5ijhGnRD3i4l2eE/imO1FHK+6vtfNwLFEVMGt9Lv1+Rqq6/yvJWIGnEtMULiE6uOA70vERz+GCK16PHEyVuUCImhEN4dWWA7EnIvzptNPgF8RJ1lVFhKhbA8jTo7O8dqlgrx3BF5GBNEZVo+nms7/HuBGqlmoagGwgmgktiUajnXEgGpjBfm3YVvifFhM3G3cSIQ5XUXs36AWE43ooI9wnkFECP3awDWqz0uprpO4Ffj+dDqfmRDKmyvKH6KTO5xYZ+V4oo05sML8fwV8o8e/ZdYdKOIG4lidR/QDl9I7tHxZexHt8VHEsXoo1UzkW0j05b+T+dAiItpQ2QkIm4BvAn9Eu4uW3J+4bXY2g0/0emSfcl47YN4biFm9pxOLTLRhATEY+FNiZbdB9uf7Ddc960eU37cziclje+Ny2sNgIXEX8MXEI52y3+sPm6540qBB135ELHh2DO29tnsA8AqirdvIYPvzuj7lPHLAvDcD3yP6jvsPvtul3YfovM9isLeUbiU5SD6iZEE3Eh3IvqV2t16HEGFByw5snt4n7/eUzPMqYvCwe2V7WZ0HEO+UlglZvJHhXT/gsZT7rn5KLFSi4XYisRBYme/40S3Ut4iFlOswVxNtU5udWC+7E23fVZT7rt7bJ+9TS+Z5G9FHFF3Vskn7EX3rjZTbt1QY91OSma8F3kRzq/0NYgWxFGT2B/XSPnl+NJnXncRIeBRCk+4K/AP5EeiebVS2gDLxxv+L5lYC0+CWE99Z9nv+dBuVLWA3cvuxCfh7Yt7AsFtEtIV3kNvHf+2T50uTeW0E3kH0DcNuKdHX3k1uH7vewe51CzN79baGmAyxLvm5Nqwl5iRk69rvdm/2ltpd03UYhWe7qyhX12G8Pb4DsSRzxneIZ8SjMEtcYTXxnX03+bmnMJwDvWx7vIFoj1fVUJeqbSTal56vqvXQr83NHq91xPFam/xcGzp1XZP8XOqY3J9ytxkuJp7FDeOPaCdipHkF5fbtGX3yfl/JPM8HnsOQLe84bXfiGViZJXA3MZzv1j+J3H7cwmhcRam7Xcmv5jiM79hvw8yM8ky6lnhWvtvWWbZuCdH2nU+5tvP9ffJ+Zsk8LyfmYQ1jQLPlRN9admnn1LotS5iZqVsmrSKWd3wm7b5nfS/gecRt37WU358p+k8CfMOAed8G/BNxBdJmSN09gZcQr9cMMkmn1+uSbfsbcvvxmnaqqQplJ+j+VTvVnNdFlP89biAeibyYat+MylpGtHH/zGCTzKeINreXQScB3k08Dnou0Ye0ZUeiD/04g/XHdxFvzKR8foAC55585wHvBp5NvDJXx9XhImLy4vOI0eH5lBs190on9yn79ArLWUvcuvwr4lW1A6nndvpi4EjgRcCHiEluVYXEfXsN9a1CZpb43Yz2+gYKy8g9L/1KO9Wc19uo5re5mRigfxB4ITHZN905FLCQCEX7NKIt+y6DX4TNTv0CIp1cYTn3EH3J+4i+5XDqmbu1LdE3PpvoK88j+s4q9uGMXoX2e45yMvCt8vvT1wbiVvylxPOMm4jZjTcyM+v8jjmf6QSWWEGMYncnbm113v8/iHpvOz+S3nEATgf+scay1xHH6nLitl4n8MTNROO2iS2foS1k5s7LTsTx6gSf2Id433R/6pmpv3Y6/6rfk63ClRR/zfKLwG/XVxU16ItEsK4irqRADPUW7EMEnqnjceEm4DfMvN/eCTJ2AzPt8J1sGSdgB6L9WEq0LZ3AbHsTb1wdRj0Di45XAB/o8W8nU1/fBXF39EoifsLs/usGZuZd3D7nMzsR/e1you/q9F/7EP3XwUSwoDqcRH4+DABforqR1Kink/scpyrvAIx6+ss+x6ltmVca/7SlOqp6b6X4956djNakd9L+73tYUlN3AEY9/Wef4zTvreUXEyMcqYjvE43tMFpI7jXVqiNVqj2Z73I5w/kGC0Qgn7PbroRGxtX0f3193hP9JmLSxrDHdVf7fkUE4KgiLG4dFpF7XTP7mo2GV+Z1uAUMb3yOjcQz4l+1XRENvVuIvrtvCPkiI90fE88QVlZQKY2nHxIR2Lxqlup1HfFbO7/timhorSTOkYvm27Dora5fEDPGhzVSltoxRcyOPZFqFyuq0vbEYiQvb7siGhl/ADyc4YxnAvFbOwH4c6pdwEej7wvEgkK/LLJxZtb8ncBpwOeI1zqqXNlJo+d8YrGnc9quyCxLiaVAj5mVjmA4gxJpeHWWkt1MzPS+YFb6McMRFXIjMd/m60S8/2NbrY3adiURuK3nK3/dlGkYzyDeDngp0QE4EJgsFxIDwM/S7tXHUmKp0WOAo7GzV/UWEufUEcDzp/9u7qDgQmJQ0FbY3XOAhwDPAv6Y+C1ocvwG+DsiuFLjofi3JULkDho5rum0jgj4kfnMyX2OQ+Y1wA3EUsmDLO/YdFpNRKM6pc8xqNN2RCjLFxCrgJ1NTDasc5/7vWak0ZJdHKZMuo5oB99KxBzYpYkd6+IU4re6hvr3uarUWT4+E/imytcAz6T+9qTKtJG4CH8mQ3TBsxvwMiLk5DCefHcSV60vJH6cByQ/f3Kffc8MADoLTuwLvJKITrduCI7P3HQL8AkiXneTq2QtI55vvgr4GLG0a5URHYumd9W9o2rMX9LOb2juoKDJsLIriN/uJ8mvh9BEWke0fa9kZvn4TKTAKgcABxB9wouIO9x3DcHxmZvWEAGtfo8Kl4+vcvRwExHP/p+m8z2MuC17AjGh5nCae792E1s/uzufLV9Ra2vN522JTu5qImTx+4nXjo4kjtPsZ9fZVQbLuoeIAjb7eP2QGJHXaRkzt/E76XDqiVCYNTQjaw2sre9yT2IBqidN//9mIprf3DkFdQQfWkVM2v408Xs6nC1/Z8dSb6S+ua5nZp/PBs4loph2LKe97+lexK30j06nTnt83HR6MNEeNxkf4hpiFv+5xPE6nxpu8dd1wO8hVga8mFgUCCI07VHAfsSIa99ZaX/ycdfvIjrRq6b/ezXx+sOVRKzrfs/kTqX/etJ12pZ4q+JpxPNDiFs6nR9Hx72JzrFzfPZj5njtR8xuz7idmWO0kpljdgVxvOpeCnM5W3f2hzEcnX0317ddAVVmWL7LhcQ5fxix0AzMDAouZMt5BVUOCjaxdXu8PTFh9mC2bFc67czOW2fT11q2bFdWMtM2X0T/WDIPJmavtzUAOIuI8/+l6f+f3R53wg2vINqvA4j2eF8ijG+nbc7eJV3N1m3xVdP//zPirk3tmjzgd9I7ln7HUmJUuoKo287E7Y87iC9lNTEKGqSzejFxl6LNjmc/4lg8Efhej21uAb4xTz7LiOfjOxLHa0dm1gXYQNw2upvmg/MsJwZ7ncl5w97Zd3Nt2xVQZYZlANDN7EHBadN/N0X3OwV3VljuWiJy5/f7bLOYaJM77Uwn/v+dxEXency0M2WdRHS8bb5yuQMxAHkh8cikm1VEW92rvYYYVC0h9mURM/H/byeO1yqiLb67VwZNG7bbnHdPp7kLKVTlIcSIrkxH1O9YlVkzfgXxvOloync2a6ZTXceriE5nP/fKfljDqUrDbgGxQMx92HJQcDlbDgoupNpBwVzrp1Nd7cuexCOKMp1/v/kUZSI5bgv8CxFl8YJ5tu1l7XRqsz1OGbYBQJ22IZ7vlF1xae8+/7Z/yTx3I17heHbJzzdtBTOdfefq3s5eqt8CYrnYQ4nJfdDOoKBKf0+sVFrGAX3+bd8+/9bPYmIQcBRxbMfeJA0AnkVM5Cirrgl5zwDuD/y8pvzLmt3Zd9J9sLOXhkWvQcEVbD0omLu8etuOJOZBlVVXB/1Aol6fryn/oTJJA4DfGfDz/Z79XAD8bsl8FxJBRt5Y8vNVWMHWEfSafGtDUjUWAIdMp9l3FmfPwr+AePbfZvju5zPYRVW/tRAGXTHxBUzIAKCp18zatgS4jfzM+Y5bgF37/PtiYoJi2QHVT4kOuAmT0tlvZMuJVD8lZvsW9Vzg32uol5p3GvCpxPZHAw8A7ksEoDqB/Kz4UdDmoOBnxJ3PMu4hJib2e035VsoHY1pNzDGo+zXo1k3KHYD9Kd/5wzxrKhMTZf4WeEPJ/A8jBmNV39aa1M6+W9yHJt951mj7BTHrfra92PJ3NA6DgrlxCqCZQUFnkmNZ72T+zvnlwGdK5r+cmEdwRcnPa8icSLnoS5vJdeofL1nOFIOHDl1BBBJ6NfGu78WMVrjhomkDM+8zv3p6n4tM7FycLOe07tloBJ1G7rsvOljci4jw91Yi4t8wRtyrIs2NaNjvbmgRuwxQl48lynkz0YaXKeeEAfZPQ+Zx5L78O4nbxYeVKOtRxMj57mSZ+yTKmJTOfj3lOvtuHABMrroGAN1M6qBgt8Qx2idZ1t3Aj4BHJsrouC8RcyUb3vcxJcoaOZPyCCDrcMoHD/kmcYvw0cRSnYPagZgxO+638Tew9StNTYQjlqp0HTOdY8fcxwcPo73FgqpS5PHBD4gQ8YN6CvMHRevlF8TaAPsQ0fY0iwOA4TIpnf1qIvzw7MbiV8RdDGncOCjYclCgIeEAYHicRcTltrOXxl+RQcFDaXYFwTp0GxRUcVdAFXAAMDwObbsCFVhFLPwxu7O/hJiIM2pOo7lXM5u2CDiQmclcNwO/Jl6vGkf3bbsCBc0dFCwk2oXZg4KjiDuFoywzX0A1cgCgslYRr0rN7uwvZTQ7+26ePJ2ktmwmBtCXMBPHoBP9b/ag4GhGf1CgFjgAUBF3sWVnfyHj1dlLo2KK+O1dykygqrmDgqOn045tVFCjwwGA5rqLmbXJO/+9DDt7aVj1GhQcwtZ3ChwU6H85AKjPkrYrUMAqIkTu7Nv4v8TOXhp1U8TA/TJiyd2OuRMNj6fccuZNGoW2dCQ5AKjPgW1XYA47e0lF3j4YtkHB/m1XYFw5AKhPm8f2DmZu33du5V9OXBVMqnF7vVL1mbRzZe6gYAHxSvLRbDkw2KmV2tlP1cYDW59rGirnDrZ8Xn8BsYjFJHf23XinQ0VN+rkyRVwwXM6WC+oczNZzCppYEOm6BsqYSA4A6nN7TXnO7ug7nb0k1e2K6TR7UHAQWw4KjqH6QUEdbalwADDMbmfLjv4CIliLJA2LX0+nz876uyYGBaqAA4Dh8T3gHGau8O3sJY2iboOCA5kZDJwAPKKFemkOBwDD47k0N29A87uJWMdgXOwOLCu47Rrgxhrr0rTlGH62bVdOpzNwZb6h4QBA6u4PmQmqMg6+ADy14LZfB55WY12adhozoXQlTZu0110kSRIOACRJmkgOACRJmkAOACRJmkBOAhwejwBubrsSY2xR2xXQyDgF2Nh2JcbYrm1XQMEBwPBwlrI0HL7cdgWkJvgIQJKkCeQAQJKkCeQAoD4e29G2XdsVUGX8LkfbgrYrMK7spOpzQNsV0EAOarsCqswhbVdAA9m37QqMKwcA9VnRdgU0EL+/8VF0DQQNpx3brsC4cgBQn1vbroAGclvbFVBlXE9+tPl6dE0cANTHlf1G25VtV0CV8bscbTe0XYFx5QBA6m5z2xVQZTa1XQFpGDkAkCRpAjkAkCRpAhkKeHicgM+66rQd8Mu2K6GRcASwoe1KjLE9gHParoQcAAyTlThxsE6L266ARsaVwPq2KzHGHFwNCR8BSJI0gRwASJI0gXwE0N2ZDL4e+A5VVESVyb4KZvS48bE0ub2vDQ6XfwTuGjAP14PoYlIGAGuT2x9ZSy36y9ZROfcQ7/YXvet1MvDh2mqjJp2S2HYTca6oPuuS2x9aSy36m4j2eFIeAdzYdgXmsQFDz9btSHLn+wPqqogal/kutwEeVFdFBESY9EHvsNbt+rYr0IRJGQCsZLhn9V4GTLVdiTH3tuT2hzA5v49xtpD8yo5vr6Mi+l9TwOVtV6KPtUzIG1mT0sDdDXy37Ur08ZW2KzDmjgOekvzMUuBxNdRFzXo8+fkcTwKOr6EumnFm2xXo41sM9wWjSvg/xMhz2NJm4Oga91vwNcp9Nz9hfAbJX6D4fn+hpTpWbRvgp5T77r/RQn0nyTFE29d2+9stPa/G/VZLtgEuof2Ta1wb22H1cAb7fv6i+SrXYhIHAH/JYN/9I5uv8kT5b9pvf+emS5icyfET5yRi8knbJ1kn3QYcWOse69sM9h1tBk5vutI1mLQBwMsZ/ArTcLX12g+4mfbb4U7aSFwwaIy9kuG49bQWeGzN+zrpHk9139f7yL9PPkwmZQCwlPiuqvreH99s9SfObxFtYdvt8WbgFTXvq4bEC4iJgW2dbDcSi/+oPguAH1Dt93Yt8AfA7g3uR1XGfQCwG/HdXEu13/kFxLmk+jwCuIn22uM1wHNr38shNMkn9oHAO4Gn0lyUqFXAR4G3Arc3VOakehrw+Zry3kxMEFxJ9xgTi4D9gV2J39gdxAIzbQYXeSxwQMFtf0NMnGzLEqKuuxDH+hbgKrq/O747cSv5gdQ3YfNU6juXFHYh2sUXAcsbKnMD8b2+kTi/Js4kDwA6diZuQx0I7EX1g4G1wNXEu/5fZ0IiTLVsAXAhBnRRNS4i3tSZarsiE2B7YrB6KLDP9P9XaQNwHfBrYpDrhZg0Zp5Ce7cTTeOZsnEkpKHnHQCNo/OBY9uuhMbKj4AHt10JqUrjEuRE6ng8dv6q3rHAE9quhFQlBwAaN3+S3H4loznrXYP5AvHdZ2TPLUlSQx5D/tnuK4gokR8s8VnTaKYPTH/nryjxWWN3SNIQ+i65xvwa4pWzjhcQ7wS33UGZ6klrgVczYwlxDmTy+B6SpKFyMvkO4VVd8jkc+GaJvEzDnb4BHMbWXlUiL9cIkKQhcha5Rvx6+r9j/FRi5nfbHZdpsHQ+8Nv0tj1xLmTy/Faf/CRJDXoY+Y7hNQXzfjjwISLiX9udmalYunH6Oyu6sMtrS5RxYsG8paFlHACNgzOJaI5F3UxEflyT+MwC4P7A8cBDgBcSE8kyfgPcOufvjqb473AlUfdBbQ/ci5k7IGun61VFlMpdidC8RUwRERtnuxfFQxZ3bAL+lVj74fvAz6fzLmoZEap518RnvkbunJMkVexI8qs7vmHAMr+ULG+KuG3craNfl8jj5QPWuwkvp/j+rOuRx9cTeXTSFwes9xtLlHn0gGVKkgbwSXKN9i3AigHKe1KyvCli5clDeuTnAGBrBwKrE/l00iCBepaRX5HukwOUJ0kawL7E4h6ZRvv/DlDedsAlyfKmgNf3ydMBQHdlrsgvAxYPUPe3JMvbSKz6KElq2HvINdh3ADsNUN6bk+VNEcsGL+qTpwOA7rYl5gdkj/cgj3d2AG5LlvfuAcqTJJWwC7CKXGP9tgHK27tEeZuISYP9OADo7cHAPYn8pojvaO8B6v+OZHmriYmLkqSGZK/G1wK7D1Dep5LlFb06zAwq/miA+jflj8h11vN5byK/TvrEAPXfnThXMuW9aYDyJEkJ2wJXk2ukPzBAeSeQf9PgBmDHAnlngtB8eIB9aMpHKL4/1xbIbwfgukSeU8R3ddIA+/ChZHnX0v8xjySpIs8h10BvAg4tWdY2wEXJ8qaIOAFFnJfI83YGm8NQt52JeRZF9+fcgvm+OJFnJ/2YfJyGjvsQ50ymvGeVLEuSlHAOucb5jAHK+r1kWVNEMJqiwX2yV5ufI+6ADJtFxBK7mX0peldmIRHkJ/s9vHSA/fl8sqyzByhLaoWRADVqjiXiu2ccT3QgWcuIV8v2THxm83R5Rev428B/Juv1I+D9wKXEq2hZK4jHE514CKuIK/fVJfJaRFwxvwo4JvnZpwD/XXDb44i7JQsT+V9H1C0T8bHjoRS/Q9FxLHBBibIkSQV8nNyVWbYRn+3PkmVNAf+cLGMZ+Uln45DuBpYmj1VmfkEnvSVZxmzfT5b1bwOUJUnqY3dyr81NEfMFytgNuCtZ1u3Tn8v6TLKccUifLnGcdic3x2AKuJNcjP/Znpssax2DvWkiSerhTeQa5EFmZ/9Dsqwp4jZ4GfcjP+lslNM9wH1LHqvMa4ad9L6SZS0i/7bJG0uWJUnqYSFwBbnGuGzY30PJhxj+OYNNzvtEsrxRTh8b4DgtAi5OlrceOLhkednwwFeQm6cgSZrHb5FriNf1Cz+tAAASuElEQVRR7nY8xFsD2U7t8SXL6tiL/Pvuo5iuBfYY8Fg9sUS5ZR45QDw+yM7ReEzJsiRJXXyOXCP8kZLlPIR80J+zSpY110OJq9W2O+m60gbgERUdq28ly95MhBYu46PJsj5XshxJ0hx7kr8lf1zJsr6dLGcz8fpXVV5MPv79KKR7KB4cqYgH09xA7bhkORvIvToqSerh/5JrgC8qWc6jkuVMUc+a8I8lZq+33WlXlVYBT6r0CIVPl6jLySXLyq5M+OaS5UiSpi0gP/nv90qW9b1kOeuBg0qWNZ+jiImFbXfeg6afAg+q+Nh0HEz+kcl3SpaVWeVwijhnDbQmSQM4kfzV5g4lynlMspwp4O9K7lNR2wGvJibOtd2RZ9M1wCupf5GcMqsFnlKinBXk40JUNd9BkibSP5NrdD9YspzvJsu5nebWgV9EhM39FyI08TDGDNhEhCb+MPBkmluv4N7kgwOVjdufPRezUSElSdO2J9+4H12inMcmy5ii3YAvmRUE56briY7pdODp0+n06b/LLE1cVadahewckSng0SXKOSZZxp3EOSxJSjqNXIN7Yclyss/+bwaWlyxrUCcXqF+3dAvwEvoHqVlIrKB3a8kyTqxqJ5OWATcWrGMnnVOyrOzS0KeVLEeSJtpXyDW2f1iijMcly5gCXlt2hyrwxT716pV+Qu61tL2IyXvZcrKrGlbp9X3q1SuVCdjz2mQZXym7Q5I0qfYklrot2tBupNxCLNnb6TeQX8WuKruSOyadzn/nEmXtTH4QsIF4Jt+GMncByqwUuQe57+AeYkAlSSroD8k15kXXlZ/tlGQZU8RiNG05vU+9uqVVwGEDlHcEsDpZ5ssGKG9Qr+tTr17ppBLl/E+yjDbPGUkaOeeQa2SfWaKMrybLuJ72rv4hHw75DX3yWkZEMHwQ8YpbL29OlvnZUntWjaXEHZpMfb9copxnJcsoc6dBkibSPuTCvN5Bfrb1A5NlTFFujkFVFgA39ahXt3Qr3Tv2vYCPs2UAnfVERMN9umy/A3BbotwbBt3RAb2G4nXtpKOSZSwhd0w2A/sPsE+SNDGya75/qEQZn0qWcR3tvtK1d4969Uof6JLHEfR/1e+G6W3m+lCy7Dbj4G9P/nXGT5QoJ3tMXlN2hyRpkpxLrnHNRnY7kPxkujav/iH/+t9T53x+W+DiAp/7GbDNnM8+PVl22xHwsgPIjeSv0LPzR84bZIckaRLsS+7W/A1s3WHN5x8S+U8Rt9Pbeu+/43nk6rz3nM9nOvGnz/nsPsmy2373fSkRqyFT5/cmy1hI3BUqmr+PATR0+gUFkdrwbHKLqJxBhKEtajfgRakawfuI2fBtygxApoj5ArM9KvH5udveSHRgRfWbVNiEu4F/TH7mJeReYdwMfCGx/QLgGakaSTVzAKBh87Tk9tlZ539A7ln+GuKOQduWJLZdQ9zWni3Tuc3ddiPRqRaVqWtd3k+uzkuBVyTLyJ57c++sSK1yAKBhsivwkMT2N5CLQb+Y/HvqHybC6LZtbWLb5WzdCV+f+Py1c/5/Cbk7EJmOty63AB9Jfub3iXOkqO+SO67HUy5YlVQLBwAaJk8k9zz/M+Ru/z+HXAO8EXh3Yvs63ZXcfo85//8/ic/O3TYbyW5Vcvu6/C0Ria+o3cjFk9gMfD6x/UIi9LQkaY7Pkpu4lV185vxk/h8faG+qdQK5uj+3Sx7fLvC5b3b53O8kyz5+sF2t1CfJ1f0HyfxPTubfZqAkSRpK2xFXuUUb0lvJrTn/sETenVnbDxpwn6q0K7n6/1uXPPagf3z/nxJXwXN9Iln2vQbc1yodST7gU+Yx1DbE44aiea8i95hBksbeY8g10tmr82zgnzMH2pt6rKR4/dfSPSDPMuDPgKtmbbsSeBvdn/PvQTzTL1ruyoH3snpfI/fdZwMDZe8ylFmFUJLG1vvINaKZZ7V7EivVZfJ/wqA7VINsR/PX8+S3y3Tq593JMj+W3KcmPJncPmxg6zgK/TwnmX825oAkjbUryDXQOyby/vNE3lPAZQznBNnss/iNxNyBsk4kJtFlymw7CFA3C4HLye3HWxP570RugHnFgPsjSWPjEHKN8zcSeS8iHxv+1YPuUE1WkLsdP0Xckj+wRFkHAVcny1pD+xETe8mGB76OOHeKOiuZ/yGD7pAkjYOXk2s8X5XIOxvH/i5ydxea9nFy+zNFvNefmdB4NLkwt530r4PsWM1WAHeS25+56yn0k12FMBuPQpLG0mfINZ4HJ/L+cjLvvx94b+r1IPId8xRxi/pdxO3qXnYm5g1k50tMETPtH1DZXtYjuwZEJnbCocm8PzPw3kjSiFtIbuGWyxN570vuGfZm4PBBd6gB/0W5QcAUsA74T+ANRKyA507/+b+A9QPk+7la97gah5J7JXATsF8i/ysTed/CcM4zkaTGHE2uo/lQIu+3JvP+6qA705CDiY68bGdddVpPdK6jIPtK4J8l8v5wMu+jBt4bSRphf0yu0Sz6+t9CtnzXvUg6tYodashbaL/j76Q31byvVXomuX1bSfHw1Kcl835tFTskSaPqTIo3mJuIiHhFPDGR7xSxsFBm1nfbtgG+R/ud/7cZrVvZ2xHLG2f2sWj8/t3IPWL4chU7JEmjaDvi1bGiDeaFibw/n8h3ipggN2p2Jf9+e5XpSkZzdbu/JrefZyTy/kki39WM1qBTkipzPPV00ruQe0a+GbhPFTvUgvuRv6KtIt0AHNHA/tXhPuSu1NdTfH2Dv0vkOwUcV8UOSWWM0q07jZ+HJrfvtlJdN88ht+DKd4BLk3UZFhcTK9Jd22CZVwMnAb9ssMwqXUo8PilqO+AZBbcteo52PCy5vSSNhcz7/xuApQXzPSeR7xTdl84dNXsB51L/lf/ZdF9kaNQ8n/x+F7GC3Kun/1HJ3kjSiMmEmj2/YJ4Hkbu9exuwpJK9ad92wDsoF8inyG3wP2d8nllvD9xO8f3fTJxbRfw4ke/VleyNJI2Q/ch1QO8pmO+fJvP9YCV7M1weAHyJ6jr/LxJzDcbNP5E7Dn9SMN+/T+abCTYkSSMvu4Tqswvm+6tkvg+vZG+G03HAR4nZ5tlOfxXwEeDBjde6OSeSOyaXAgsK5Pu8ZL7PqWqHJGkUvIfqr5KOS+b5a4o16KNuGREX4T3At4gZ/HOPxfXEinbvBp5A8fkWo2wBufC9UxSbtX9gMs/3VrVDkjQKfkDxBrLoc9K/SeQ5Bby9ml0ZWTsy3CsfNuEd5M6ZvymYb2Y1xaLzWyRp5G1HbuGZTxfIcwHwm0SeU4zGwj+qV3YVv5UUu2t0RiLP9cRvQmqUcQDUhvuSa/DOK7DNccD+iTx/SMwX0GS7jNwV+L7AsQW2OzeR53bEb0JqlAMAteGBye1/WGCb7EI+/57cXuPrU8ntiyxI9YNkng9Kbi9JI+ndFL89uglYXiDPKxJ5bsZXrzRjH3KxI65k/scAy4hzt2ieRV9zlaSR9m2KN4xFws0+OJHfFMWjumlyZKMoHlMgz0sS+X27sj2RCvIRgJq2ADgysf1FBbZ5erIOmdXdNBk+m9y+yCOnIuduxwOZjFdSJU2w7DvSry+Q5y8S+Xn7X93sS+4xwM8K5PmmRH5TxG9Daox3ANS07GSn+a6iDiK3LO15xKtc0mxXU2yyacf9gUPm2SZzBwCcCKiGOQBQ0zK3/wF+Ms+/PzmZn7f/1Uv23HjCPP/+42R+2bdjJGmkfJrit0SvKZDfNxP5TTH/VZsm18HkzqWvF8jz+kR+RQJeSdLIupDiDeKX58lrR3JL315c7a5oDP2S4ufTeuYPpXxmIr/sHQNpID4CUJMWEKFXi5ovUt9vkVuf/r8T22oyZc6R7YhzsJ8ir7F2HIpvAqhBDgDUpL0pFtSn45J5/v1xyfK/mNxekyc7SHz0PP9+aSKvZcRvRJLGzinknrGePE9+KxN53QRsU+XOaCxtA9xM8fPqinnye1QiryniNyI1wjsAatJ9ktv3u3q6H/HudlFfIUKzSv1sIs6Vog6i//v7893Fmuuw5PZSaQ4A1KRM47aKmEHdy3zPXucqMmNbAvhGcvt+V+3XAqsTeWUHyVJpDgDUpEzjdilxS7SXxyTL/lZye02u7ADgUX3+bQq4PJGXAwBJY+kyij8L7bdE62JgTSKvX1S/KxpzmdcBb6T/7P1M7IvMYEEaiHcA1JSF5GLw93t2ehywNJFX9opO+mZi292I0MC9ZOYB7IeTVdUQBwBqym7Ee9NF9bsSOilZ9lnJ7aXMAAD6PwbIXNUvAnZPli2V4gBATcmuwHdVn387OZHPJuA7ybKlb5F7a6TfACC7+NQ+ye2lUhwAqCmZV/YgVmfrZhFwfCKfC4Dbk2VLd5ALzXsSvaNS9jqXe8n+VqRSHACoKZmrms30fgXwwUTEtKKyt3KljszckRXEudnNtfR/o2Uu7wCoEQ4A1JTMVc0NxCI/3ZyQLNcJgCorO3jsdW6uJyJRFuUdADXCAYCakmnU+i0DfFwin3XAeYntpdnOJs6hovqdm5nHAA4A1AgHAGpK5rZmv8ay123Wbr4PrE1sL822DvhBYvuH9Pm3zADARwBqhAMANSXzFkCvxnIPYP9EPt9PbCt1kxkA7Avs1ePfvAOgoeMAQE1YSHTeRfV6BJC5/Q9wfnJ7aa4fJrfvdYcqMwDYE9tmNcCTTE3YEdg2sX1VA4Bs4y3NlT2Hej0GuDaRx7bATslypTQHAGrCvZPb39zj7/s9Y53rOvpPJpSKuJo4l4rqNUjtdU73cq/k9lKaAwA1IduY3drl7xYAxyby8Pm/qpK5C3Ac3dvVbud0Pw4AVDsHAGpCFQOAw8ndFvX2v6qSOZdWEOfqXLcky3QAoNo5AFATdkluf1uXvzsqmYcDAFUley4d3eXvsncAso/NpDQHAGpCpjFbC9zd5e/vl8hjM7EGgFSFHxLnVFHdztW7ycWk8A6AaucAQE3I3AHodaWUGQBcBtyV2F7qZxW5JX17nauZxwAOAFQ7BwBqQuYOQK9GMjMAuDixrVTELxLb9jpXM48BfASg2jkAUBMyVzPdGsklwIGJPBwAqGqZc+oAuq9YmRkAeAdAtXMAoCbsmNi22wTAI4BtEnk4AFDVfp7YdiFxzs6VeQSQnTgrpTkAUBMyUQDXd/m7+ybLy9yulYrIDiq7PQbodm73khnwSqU4AFATMg1ft8VUur1W1cs9wCWJ7aUiLiHOraK6vbaaeYx1U2JbqRQHAGrCjYltj2fL258LgCckPn8ZsCGxvVTEBuLcKupxbNm+7kZuKesbEttKpTgAUBN+ldh2KfDOWf9/Ot0jq/Xi+/+qy48S2x5GnLsQg9h3EpNZi1qZ2FaShtajgKlk+hrwceK2a+Zzr2honzR5Xk7uXNwEfBI4K/m5KXLrXkjS0FpMBObJNoJlUiZegJRxP5o5h2/Cu7OSxsjHqL/hNP6/6nY+9Z/H/9zY3khSA46j/obzZY3tjSbVS6j3HL6HmD8gSWPli9TXcF5GPGqQ6rQ9sS5AXefxJ5vbFUlqziHAauppOB/f4H5osj2Wes7h24D9G9wPSWpUHbdQ39voHkjwAao9hzcDT2l0DySpBe+iuobzKxg2Vc3bFvgS1Z3Hb2m2+pLUnlcT70kP0mh+mngmK7VhGXAGg53Dm4Dfb7riktS2pwHXkG801wCvbaG+0lwLgDcA68ifx1cQIYMlaSItA95OrJU+X4O5Dvgw3RcMktq0H/ARYs2A+c7jW4G34t0rtWxB2xWQpi0CHgk8kVg1bW9gO+Ba4Grg68Tz/lVtVVAqYCfiqv7RwL7EeQxwM/Az4JvAV4nBrCRJkiRJkiRJkiRJkiRJkiRJkiRJkiRJkiRJkiRJkiRJkiRJkiRJkiRJkiRJkiRJkiRJkiRJkiRJkiRJkiRJkiRJkiRJkiRJkiRJkiRJkiRJkiRJkiRJkiRJkiRJkiRJkiRJkiRJkiRJkiRJkiRJkiRJkiRJkiRJkiRJkiRJkiRJkiRJkiRJkiRJkiRJkiRJkiRJkiRJkiRJkiRJkiRJkiRJkiRJkiRJkiRJkiRJkiRJkiRJkiRJkiRJkiRJkiRJkiRJkiRJkiRJkiRJkiRJkiRJkiRJkiRJkiRJkiRJkiRJkiRJkiRJkiRJkiRJkiRJkiRJkiRJkiRJkiRJkiRJkiRJkiRJkiRJkiRJkiRJkiRJkiRJkiRJkiRJkiRJkiRJkiRJkiRJkiRJkiRJkiRJkiRJkiRJkiRJkiRJkiRJkiRJkiRJkiRJkiRJkiRJkiRJkiRJkiRJkiRJkiRJkiRJkiRJkiRJkiRJkiRJkiRJkiRJkiRJkiRJkiRJkiRJkiRJkiRJkiRJkiRJkiRJkiRJkiRJkiRJkiRJkiRJkiRJkiRJkiRJkiRJkiRJkpTx/wF4ukY1fpJcHAAAAABJRU5ErkJggg==;" vertex="1" parent="1">
          <mxGeometry x="236" y="320" width="90" height="90" as="geometry" />
        </mxCell>
        <mxCell id="tsvlCH98z1KSzA6yaUKa-2" value="" style="endArrow=classic;html=1;rounded=0;entryX=-0.3;entryY=0.133;entryDx=0;entryDy=0;entryPerimeter=0;" edge="1" parent="1">
          <mxGeometry width="50" height="50" relative="1" as="geometry">
            <mxPoint x="281" y="250" as="sourcePoint" />
            <mxPoint x="281" y="423.99" as="targetPoint" />
          </mxGeometry>
        </mxCell>
        <mxCell id="tsvlCH98z1KSzA6yaUKa-3" value="" style="endArrow=classic;html=1;rounded=0;" edge="1" parent="1">
          <mxGeometry width="50" height="50" relative="1" as="geometry">
            <mxPoint x="280" y="360" as="sourcePoint" />
            <mxPoint x="440" y="360" as="targetPoint" />
          </mxGeometry>
        </mxCell>
        <mxCell id="tsvlCH98z1KSzA6yaUKa-4" value="" style="endArrow=classic;html=1;rounded=0;" edge="1" parent="1">
          <mxGeometry width="50" height="50" relative="1" as="geometry">
            <mxPoint x="280" y="360" as="sourcePoint" />
            <mxPoint x="180" y="460" as="targetPoint" />
          </mxGeometry>
        </mxCell>
        <mxCell id="tsvlCH98z1KSzA6yaUKa-5" value="Y" style="text;html=1;align=center;verticalAlign=middle;resizable=0;points=[];autosize=1;strokeColor=none;fillColor=none;" vertex="1" parent="1">
          <mxGeometry x="430" y="360" width="30" height="30" as="geometry" />
        </mxCell>
        <mxCell id="tsvlCH98z1KSzA6yaUKa-6" value="X" style="text;html=1;align=center;verticalAlign=middle;resizable=0;points=[];autosize=1;strokeColor=none;fillColor=none;" vertex="1" parent="1">
          <mxGeometry x="180" y="460" width="30" height="30" as="geometry" />
        </mxCell>
        <mxCell id="tsvlCH98z1KSzA6yaUKa-9" value="Z" style="text;html=1;align=center;verticalAlign=middle;resizable=0;points=[];autosize=1;strokeColor=none;fillColor=none;" vertex="1" parent="1">
          <mxGeometry x="290" y="420" width="30" height="30" as="geometry" />
        </mxCell>
      </root>
    </mxGraphModel>
  </diagram>
  <diagram id="drxBmgmSJ-3SR1va8jY4" name="Seite-3">
    <mxGraphModel dx="2074" dy="1114" grid="1" gridSize="10" guides="1" tooltips="1" connect="1" arrows="1" fold="1" page="1" pageScale="1" pageWidth="827" pageHeight="1169" math="0" shadow="0">
      <root>
        <mxCell id="0" />
        <mxCell id="1" parent="0" />
        <mxCell id="mcXkHLiVcLa4XkpfHniU-2" value="" style="shape=image;imageAspect=0;aspect=fixed;verticalLabelPosition=bottom;verticalAlign=top;image=data:image/png,iVBORw0KGgoAAAANSUhEUgAAAgAAAAIACAYAAAD0eNT6AAAACXBIWXMAAEuXAABLlwHuxW8gAAAAGXRFWHRTb2Z0d2FyZQB3d3cuaW5rc2NhcGUub3Jnm+48GgAAIABJREFUeJzs3Xe4HlW59/Hv3ukJkECoKXSlVwFFiqCCEIpUBQ6i2LCAIHZBaYoelHPggBVFKQICdgSkSgkgTSAgnRRqgBAS0kjZ+/3jfvabnWQn2c8z91pr1szvc13rCiKZ514za2bumVkFREREREREREREREREREREREREREREREREREREREREREREREREREREREREREREREREREREREREREREREREREREREREREREREREREREREREREREREREREREREREREREREREREREREREREREREREREREREREREREREREREREREREREREREREREREREREREREREREREREREREREREREREREREREREREREREREREREREREREREREREREREREREREREREREREREREREpGdtqQOQZAYAI4DVgeHdyoBGGdztv10ATAfmAjOBOcA04CXgBeAVoDNW4CJCG7AmMAo7j1cCBmHn7QBgBaBft//+LWA+du5O6VZexc7jubECl/JQAlB96wJbNMrGwHqNshbQ7vQb81iYDEwAxgEPA480/r2ItGYEsCWwFXYOr8PCm35/p9/oAF7Ezt3xwOPYOTwOmOT0G1JCSgCqZSjw3kbZCdi28e9Seg1LBh4E/gncAcxIGZBISa0A7ArsBmwDbA2smjIgYCp27o4F7gLuxt4GSgUoAchbX+xmvzewF/ak4PVUH8o84F7gZuAW4B7g7aQRiaQxENgReH+j7ICd02W2AHgIuB64Djt/FySNSKRGBgEHAVdg2Xln5mUacAmwH/btUqTKBgIHAJdhT9Kpz7+i5Y1GXQ5o1E1EnPUB9gV+RzUuGksrbwIXY8lA9w5MIjkbAHwYuJRqn7/TsPN3L8r/JlKk9EYA38A65qQ+uWOXV4AfYp2eRHI0AjgVmEz68yl2eRE7f9ctuA9Faud9wF+wb2upT+TUZR7wB+ADqM+KlF8bsCfwZ2zYXerzJ3WZD/wR65QsIkvRFzgMuI/0J21Zy2PAEej1opRPX+DjwJOkP0/KWu4GDkHnr8j/1w4cCjxB+hM0l/Is8Fmsb4RISl3nr278vS//AY5CiYDU3EHYZBupT8hcy+PojYCk0Qe7iT1F+vMg1/JvrMOvSK1sA9xG+hOwKuUBbD4EkRi2x+aySN3uq1JuwWY6FKm0NYBfoc59IUoH8JvGPhYJYQQ2lK+D9O29amU+8FNsPRKRSmkDjsYmzUh9olW9vAl8Gc0jIH76AV+l2mP4y1JeBf6rd4dFpPzWA/5B+hOrbuVhbGpkkSI2wz4xpW7PdSvXojlAJHOfxRa+SX0y1bXMAk5AnQSlee3A17Hlc1O347qW6cAnlnOcREpnVWwikNQnkIqVO4ENlnnERBZaF1u5MnW7VbFyNbDKMo6XtEgzq/nbHZuzf63UgfTSPGyq0indyhxgdrf/ph1bVrgvsCIwDFuTfA3yaUPTgM8AV6UORErtY8BPsHaeg07s/H0B6/8yE5gLvIV1rOsyBFuTYHi3sgblX32wy/PA4diyxOIkl4t3DtqArwA/oJwn1RTsu/i4RnkGmIDN2T1/6X9tmfpjPaNHARth39y3xIb0rFws3CA6gbOAk9ASprKovsCPgeNTB7IUU7Hz95FGeRK76b+E3fBb0RcYjb3x2AA7d7do/FnGJ+552DX2vNSBiHS3AnAl6V+VdS9PA7/Epid9R7iqL9U6wJHAhViikXp/dC//QMONZKHVgFtJ3y67l/HAr7Ee8euEq/pSbYSNXPoV8Fwv4o1ZLgEGh6u6SO+NAh4i/UkxD7gBOA7YMGiNW7MBcAxwI+VYJOU5YOugNZYcvAuYSPr2OA9LTD8LrB+0xq3ZCOtQexPlOH/vA9YMWmOR5dgaew2X6iTowDorHYN1PMzFaljMqS8mM4C9A9dVyusAbKRIqvY3H0vaP0Ne5+8awBeAO0ibBEzAhmmKRLcX6SYGmYx9y07xat/bOsCZpFszfS6aeKSOjiZd8vkKcAb29jB3G2N9J14jzb6cCrw/eC1FujkYeJv4jf1R4JNYb96qGYDdiO8h/n5dAHwpfBWlJL5Gmul8x2I92fuHr2J0A7E3GY8Tf7/ORosKSSRHYt/rYjbwe4F9qM+ojT2xi2XsC8kZMSonybQB/038dnU79XlKbQf2Bx4k7j6eC3w0Qv2kxj5N3IV8HsZOprrc+BeXIhH4nyg1k9jasMVmYralO4APxKhcCbVhy50/Srz9PR9bolnE3ZHEu/m/jo1H7hOlZuW3H3GHEp4WpVYS0w+J136eRzeiLu3YvojVx2c+9plFxM3BxHntPx84G1gpTrWyMgT4PvHmZv9qnGpJBN8mTpuZDZyOxqj3ZBhwLnEeouaiPgHiZC/idPh7CNguUp1ytiFxJm3pAD4XqU4SzheJc/O/kXKO3y+bd2MzkcZIxnaPVCepqK0JP9RvHnAqWr++Ge3Al7GTPOSxWYBeJ+Ysxme7WdjkW3Xtp9OK/liH29DDMKeieQKkRSOASYRtoBOAXSLVp4o2wWYEC3mMZmNPLZKXHQn/uehebBy8tOY92JokIY/R88DIWBWSaliB8NP7XkU+K46VWT/g/wh7rF5EF5GcjAZeJmyb+BHlXPQrN0MJv3T6fahfhvRSG/B7wjXG+dgrf70y9HUEthRqqOP2ALqI5GAQ9mQeqh3MxhbYEj9twDcI+0ngd9FqI1n7KuEa4TRsbLuEsS1hhwteihK3MmsDLiPc8R+PFpAKaW/C9rk6Nl5VJEe7E2643yRsrW0Ja3XgfsJdRMq6XryETd7/RV4L9uRqK8ItsDYX2CleVSQnqwIvEabhjcM6FUocKwI3E+ZYzkaJXBltQ7jhujdi/YIkjlHAY4Q5lhOxOQlEFnElYRrcA+jJIYX+hOvL8Rj2rVnKYSDwCGGO9Z8b25e4VsbeuoQ4pldHrIdk4LOEaWh3Yb1cJY0+wEWEObbnRKyHLFuoUSAXoum4UxoG3E2YY6upmgWw2btm4N/A7kc3/zLog2X83se3A3XoLIO9CLO07+/Rzb8MhhFmZcFp2HBRqbE27Pued+MaBwyPWA9Ztv7Adfgf5xfQXA4pDSNMv51rsTYj5bAaYfoE/C1mJaR8jsa/UU1CHf7KaDBwG/7HW8sHp3Me/sfzNtS/o4xGEWZ0wGExKyHlsQYwBd/GNA31EC+zVYCn8T3m89AxT2Fr/CeOeRL1EC+zEGuzTMauC1Izv8K3Ic1H34RzsAmWqHke+zvQBEExtQFj8T2Gb6J5/XMwBv8Fns6LWgNJbhv8G9HXo9ZAivgQ/k+PH49ag3rz/nS3ANg3ag2kiJPwPf7z0Vu8WvH+Fnw1egLMzTfxbQOTUYfAGIZh+1rJe3214b+A0A1RayDJHIhvw3kWXfhz1I7/CJDvRK1BPZ2G7zG7HiXvORqG/7ofY2JWQOJrBx7Gr8HMw9YdlzyNAF7Hrz28ic1gJmEMA6bid7xeA9aKWgPxtDO+n/IeQMlgpR2Ob8Z4atToJYSD8G0Tp8cNv1bOwPdYHRw3fAnAu00cGDd8iaUP8AR+DeVhoF/UGkgoF+LXLqahSaBCGI7v6I3fxA1fAumPTbzm1S4ewd4US8V4Pv0vQK/+q2QV4FX82scP44ZfC2fid3xeRwt0VckO+H4KOCBu+BLDvfg1EM3+Vj2fxq99vAEMiBt+pQ3BdwKYT8cNXyLwXBDqjsixS2C74tc4JqNFfqqoHd+Vx/aJG36lHYbfcbkHveKtopWxTp1e7eQ9ccOXkP6CX8P4TOTYJZ5t8HuV+M3IsVfZufgck/nAuyLHLvF8Hr/r/FWRY5dA1sbvov4wWiK06i7Bp63oM5GfP+JzTC6OHbhE1Qd4FJ+2Mo8aLOpWh1dhn8Tvpn0K1gFQqut0LGEsarrDNsS87bCN+diQMamuBdg12kNf4BNO25JE+mDL83pkhPehSSLqwmNY4CHRo66uH1L8ePw2dtCSRBvwb3yu+c9Sj4fkytoHn4bQiRYLqZP1gLm03lbmoLkAPO1B8de5G0aPWlI5AL/r/gcjxy6OLsWnETyGnv7rpsiwol8kiLfK+gBP0frxuCB+yJJQO36Tvv06cuziZBB+Y4c/FTl2SW9l4GWabysvA2skiLfqDqa1c/cNYPUE8Upan8Xn2v8GNtugZMZrjvdXgYGRY5dy2Jbmkshp2AIlEsY5NHfuzgU+lCRSSW0gfvMCVHZOj76pAwjoUKftXIR90626fsBGjbIeNlXqEOz163Ts5jYBexX7ODArSZRxPYhN+fx7YLPl/LePAUcCD4UOqsa+DMzE5lhYXuesKcBRwD9CB1USg4FNgHcC62KTla2EjX6YiU1/PAF7Nf4kPiNdymwONuzzRIdtHQr83WE7EklffJYN7cBOqKoaBXwFuA6YQe/3y9vYdJmnYBedqusHfBy4Dat7136YB9yOvW7UwlDxbA/cQM/ze8wEzqcGY7ixpPQ07FxsptPqW8C1WEJV5f20CX5vgTUaICO74HPgb4sdeARt2IiGG7Bxsx776V7gaOpxExwAjMYmmKpDfctsDWA/bAa4TwC7Uf3Pdf2xuU3ux+fcnY+9JRlDNTs6j8VnP20fO3BpndfKYZ+LHXhgY7BX1B77pqcyAeswqWxZxFc79qZpIuHO3wepXp+JY/HZN9+NHbi07kGKH/B5wGqxAw9kFH7Tqfam3A1sFaVmItW3DfAv4p2/V1OdTwNr4jMV/NjYgUtrhuLzavvG2IEHsi/WASjWxaOrzMGybxFpTRtwPIv2O4lVXgP2Dl/FKG6h+P6Yi3W0lJLbC58T4EuxAw/gVKwjY+yLR/dyKRpHK9KsAcAVpD13O4CTQ1c0ghPx2R+7xw5cmnc6Pgc7597/7cDPSHvx6F5uAFYIWmOR6lgRuIn0521XOZ+8+/Vsis9+qEIyVHk3U/xAPxM9al8/Jf1FY/FyM/ZUIyJLNxD4J+nP156SgJxNoPg+uC520NKcNnzG/+c8d/ippL9YLK38nmoONRLx0E7czrrNlpPCVT04jxU+J0ePWpqyDj4N/eOxA3cyhvTf/JdXvh6s9iJ5+w7pz89llQ5s3oUcfRqffbBm7MCl9/bF5yDn+P1/FGl6+zdb5mLT64rIQrviM1wtdHmVPIcIboxP/feIHbj03rcpfoCnkOdr6jK/Oly8PIpm0RPpMgC/5WtjlN+H2Q1BeX0e/krswEPKuWdnTzZ22MYj2IHOyRjgwNRBNGEzbHyziMBXsUW4cvER8nsS7gTGOWzH4x4jgdxB8QzvnOhRF/cA6Z8Kmi1TsUmbROpsKD5PprHLA+T3pvR8ite7KhPEAdV7A7CuwzYeddhGTPti69bnZhi2iItInX0JOxdysy35rRvgcW1fz2EbEkB/fKYAzm22pxtI/zTQankB6OO/S0Sy0Bd4mfTnYaslt3HxH6R4nedSoWtW39QBOBqJzxuN8Q7biGUU8IEA252OfU6ZiPVMHgnsjC2/6mkkFv8NztstmxHYN97R2Hzi+vTRs2nATCwxfAK7OVbZnoQZVjYZuBN4EbvGrwO8D//ZOPcA1iKf4+Rxbe+H1fkFh22Jo+0pnt3NI6+k6Cv4ZvTPAEfQ89z97VgGfbfzb/7GZU+Uy2jgOOBP2KiS1E9quZYp2OiWY7FksWouxXd/3Y0l1D09CA0AjgSec/7NnDrz9sdnqOXWsQOX5dub4gc2t6zuOvxO5Mvp3WpXbcBpjr/7fMu1L5d2rHf0Tfh8ilJZtCzA3hQdSjX6LrXh+/r/NHrXKW8IcJXj717T6g5I5CWK1znEW1cp6EiKH9iHo0fdun7AW/icxJfTfI/eU51+u5M8J17q0gZ8DHiSODdCFfs88F/k1wu9u83w2x+nNPnb7fglAdPI663pOIrX+aPRo5blOp7iB/bm6FG3bnN8TuBnaG2d6zZsSIxHDIe38PtlsCX2rTXWjU9l0XI7dh7k6GP47IN/tPj7Q/D7HLBJizGkcCvF61uZ0UtVeJXWZZDDNt5w2EYsXhOHfBeY1cLf62ThOttF5TQJCljyczxwH7BT4ljqbBfgfqyPQG482nzXOdiKmdi57yGn89fjGt/KA1MpVSkB6KnjWrNmO2wjlg0ctjEd+EOBvz8OeNAhDo+6xDIIe316Dj5tTooZAJwHXEFey017tPn7gMcK/P2rsM+IReV0/npc43NqZ8ukBGBRcx22EYvH5CG3AW8X3IbHEL5cJkIZBlwPHJw6EFnCR7Fjs1LqQHrJYyho0XPvbewTVlG5nL9Q/HoHSgBKyeOg5JQAeIzp9eiBP8lhGys6bCO0FbDvrbumDkSWajcsCcjhFa1Hmy/L+ZtL0gU+CUBl3vxVKQHw6BHs8T07Fo9jN68k2yh7O+yHfSrZIXUgslw7AldS/p7pHtcrjweWOpy/3Xlc43Oq7zJVpiLUL7Ob4bANj8lVPLYxzWEbIf03Nmub5GEf4Hupg1iO6Q7bGFGSbXj0I4jF402xx72mFKqUAHhkwzklAB4XkJ0p3gY8XomXOQHYHzghdRDStK9jk4OVlcf5W/Tca8dnFEuZz9/FKQHoRgnAogY6bCOWCQ7bWBN4f4G/PxKfBMDjO2QIQ4FfkPeEM3XVBvwS//nvvXi0+d0otpbA+/FZ32OCwzZi8bjGKwEooTkO21jZYRuxPOG0nTNo/QZ3GvZ9vKiyLsF8BmEWa5E4RtH8LHmxeLT5AbRev3b8PpN4XYti8LjGe9xrxNnHKT7D0wPRo27dYCwT9ZjJ67QWfv9QoMPp98s4m9t6WAcpz5nrVOKXt7HFmcpma3zqtwA4oIXfP8Pp9+eQ15vTf1O8zkdEj1qWa1+KH9iJ0aMu5nb8LpSn0/s3AYdiM4l5/O6rlPNN1M+Ie6NSCVf+j/Lpg99KkTPofRLQht/NvxObWjcnz1O8zh+KHrUs13sofmDnUM6b0dKcgu+F8mZgi2X83kjgV/g9+XcCFxXcByGsgs0YFuqGpBK3zMJn4h1vv8OvjguAn7PsT1ZbAbc4/mYncHLBfRBTH3zemm4XO/BQqtS56R3AUw7bGQW86LCdGDYB/hNguw9gs4xNwjpXjsbmXd8Vn2/+3R1CsemIQ/gc9gbA20zgEWAyPuOvq6Qf1iFtS2yhGm+fwZLXMvkoNoWxp7nAP7EZ/p7HXs+vjQ1jfZfzb4GtA+Bx3Y1hbXze8q5HXh0fa2EwPk+muS3uci/pn7BaLS9TzqGX3iv8PQB8mLy+laYyCDgQn2+13cutMSvRSwOwZDD1edhqudt/lwT1PorXeQHlvGYJ8ArFD/DHokddzCdIfyFotZRxspaV8Ov81wGcRF6flcqiHVutzutz01zKOSTwTNKfh3W5Vh5N8TqXdchyS6p2YRrvsI0y9khflt+RX+fFLiMpXxvcFb9pZD8PfB+7iUlzOrCOqV5L/fbDJr4qk3Z8ZuJL4Vng8tRBNGkzh21McNiGBHI5xTO866JHXdwnSf800Gr5FeVKAk7Hp16/jh14hV2EzzH5buzAl6EdayOpz79WS25P/2D9morWu4ydlqXhNIof4Fw6AHbXDtxF+otCq6VMScDvKV6fGWgCIU8j8Bl2+rvYgS9F7jf/28mzA/nLFK/7SdGjll47GJ8GPip24A62woYxpr44tFrKkgQ8SPG6XBY96urzSMzujR71knK/+c/G51V6bGvjU//9YwcuvfdOfA7yR2IH7uSLpL9AFCllSALGU7weR0WPuvo8OnA9HT3qReV+8+8EjnHfK3Ecjk/9140ctzShHXv9WvQgnxs7cEeXkv4iUaSkTgJeW0pczRSPBZJkUbtR/LhMjh10N1W4+f/We6dEdD7F6z+NPD991IrHt/CHokftpz/wD9JfLIqUlEmARwKZ20iSHGxB8ePisQRvK6pw878O/0nAYnqU4vvg9uhRS9N+TPED3YENUcvVCsBNpL9oFCmpkgAlAOWUawJQhZv/DYSZnTGW0fjshx/EDjy01N9bQxjrsI02YC+H7aQyA9gHuDJ1IAV8ClvPvYptVOqhHbgAG6abq8uwhdZmpg6kgL2dtuNxb5HA1sAn2yvb/PStaAO+hs2ClvopotUS+02A3gCUU25vAHJ/8p8LnEg1vnn/meL7YwG2SJhk4AmKH/BZwIqxAw/kPcA40l9UWi0xkwAlAOWUUwKQ+83/YWAH972Sxkr4rOz5SOzApXXn4nMiHBE78ID6AV/Bbw3y2CVWEqAEoJxySQByvvm/DpyA31TYZfAxfPbNj2IHLq3bC5+D/tfYgUewIvAN4AX8LhyvYHPeX+i4zZ5KjCRACUA55ZAAxLj5X4idax4Ln3WV57FPhWVcLKmov+Ozjz4QO3Bp3SDsFX7Rgz4PWCty7LG0A3tgF5TnaX7fvIrNi30IC5fHbMM67oW8AIZOApQAlFPZE4AYN/9fsvCbfH/s3LsYOxeb3dZE7Fz6ANXtaDsSn5U936KiSwBX6VVPd7OBW7Ce8EX0xWYgO7NwROXTAdzYKGCzKG4DbAxsCAzFngj6YBNgTMMShXHYmNrHWHKVu04WzhT2mUBxf6rx52d7+P0ihuK3OuGm2Frv4mdDh230waaxfQmY6rC9LjF6+1+AnVudjf89F7i6Udqxem0ObIlNZT60URZgSe00bCbEJ4EHgGcCxloWR+Nzj7sJ29+SkU/gk3U/S3Uz5FByeRPQH1tu9l781p1XKX/pwNZ8OBF7W1hE7Cd/6Z124Dl89v9/RY5dHAzDb3GcAyLHXgVlTwK2xZK71DcjlbRlArAdrdHNv7wOxGf/V2k0WO38FZ9GcEfswCuinXImAbvi00dEpRplFrALzdHNv9y8lkevwnwwteW1AlQnNpZemle2JGANbFGY1DcdlXKVV+l9h1/d/MttZ/yOw6GRYxdHA/Eb935t5NirpA34CWEvmL+md0nAeYHjUMm3/JTlawN+FjiO1Cti5u5GfI7D66gzb/a8JgXqBHaKHHuVlOFNwGD06l9l6WU2y170Rk/+5bcLfsfi7MixSwCb49cgbokce9WkTgL2DfzbKvmXfemZbv55+Cd+x2PjuKFLKHfg1yj2ixx71aRMAk4I/Lsq+ZfjWZJu/nk4AL/j8c+4oUtIXkNCOoGnqOisUBGlSgLOCPybKvmX01mUbv55GIBNbuR1TPSgVyHt2I3bq3F8LW74lZQiCfhe4N9Tyb+cwUK6+efjm/gdk/+gY1I5X8CvgcwENogbfiXFHh2gBEBleaUrAVBv/3ysi88aHl3lU0jlDMLmAPdqJDegLNFDzDcBSgBUllfOQE/+OWnD5ur3Oi6T0NC/yjoO35NYmaKPWEnAmYF/QyX/8n1088/JZ/A9NscglTUAy/C8Gstb+KxSJnGSgDcCb18l/xK6jejm7+ed+L76fw7oF7UGEt1n8T2h70GNxkuMJEBFJVXRzd9Pf+A+fI/P0VFrIEn0xdaz92w4P45ag2pTEqBSxaKbv69z8D0+DwF9otagBOraIPfAOvF56QQOA6503GadtQM/x77vlc3b2HTCRfQDVii4jQ5gWsFteBlK8d7sbwHzC25jMOXswHUB9m25M3UgFXE4cJnzNndHk//UitdSwV3lLWzaYfFR1jcBv3Co2x4OcTzjEIeXCRSvz+4OcYTuvNdK0ZO/ry3x/e7fCVwdtQYlUucxqF8B5jhubwXgGnq/pKgsWwfwOezpSSRHevL3NQL4G8tesKlZs6jxxG51TgCeZtFZvzysgyUBRV/viunALqC9WaZVpEx+jSWwuvn7GAz8CVjbebunAOOdtymZ6Id1/vB+7XcdWi/AU5k+B+gTwJImULw+VfoEoNf+vgYA1+N/nO7HOoXXVp3fAADMAz4NLHDe7l7A5dS8cTnS5wDJhV77++qLXUs/5Lzd+Vgn46IdT7NW9wQALAs8M8B2DwIuooZDSwJREiBlp5u/rz7YNfTAANs+A/h3gO1KhvoCdxHmdeBfKefQpFzFWEBoWUWfAJY0geL1yf0TgBb28dUfuIowx+pO9GAGqMF2mQ98DBvK520/4I/YYkRSXCe2psOvUgci0nAB9jq5I3UgFTEY+DNwSIBtTwOOxP+zb5aUACz0LLZkcAhjgFuB1QNtv266RgcoCZDU9Nrf1xrYtXLvQNv/LPbGSqRH5xHuNeGzwMbxqlJ57dgFOOarXn0CWNIEitcnx08A6u3vaxNsQZ5Qx+vseFWRXPUDbidcI5yOdRAUH7H7BCgBWNIEitcntwRA3/x97QtMJdzxuhMt2rYENeAlzcPm9X8x0PZXxKaePAPtfw+dqE+AxKVv/n76AN/HOksPC/QbzwMHY9d2kV7ZHHiTsE8RdwHrxapQxcV6E6A3AEuaQH3eAOjJ389obAGekMdrOrBVpPpkRw156R4FjiDsRBE7YvMQHBrwN+pCbwIkND35+/kI8DDwvoC/MQ978n844G9IxXXN5x26XAmsGalOVRa6Y6DeACxpAtV/A6AOfz7WItz4/u6lA/hkpDpJxX2TOEnAG8Cn0JuZokImAUoAljSBaicAuvkX144NwQvZ0a97OTFOtaQuziBOw+0EHgB2iVOtygrVJ0AJwJImUN0EQN/8i9sBuJt4189T4lRL6uZs4jXiDuAKYKMoNaumEG8ClAAsaQLVTAD05F/MJtinzQ7iXTfPilIzqa3vE68xd2KdEC8CNoxRuQryTgKUACxpAtVLAHTzb907gIuxa1fMa+XpMSon8g3iNuxObO7qvwHvjVC/qvH8HKAEYEkTqFYCoNf+rdkWu/HPI+61sQP4WoT6ifx/xxI/w+0qdwJHoQWGmtGOLTCiBMDfBKqTAPwJPfk3YzB2LRpLmmvhfGwtBmlB39QBZOx8bIapy7CTIKadGuXcxu9fgZ2AOY1PXg3YHhjS+N//AR4nXB06sLkdPhxo+1INj2I3llDasW/j78SuvzOAe4EpAX/TWzuwM3B4owxNFMcMbNbWvyf6/ewpASjmL8Bu2DRknBSXAAAgAElEQVSWKcbwD8NWMPwC8AI2xfA1wB3A3ATxLEtfbOKjfbCVvrbs4b+ZCPwMOAd4O15oIsENBE7A5hVZZ7H/rxN4BLgWu5ndQ/mWq+2PjUzaD1umd2TacHipEcuDieMQYW1sRr8Ur8B6Km9hycnx2FN2ikSvD7AZcDRwOTbHQW/jf4Iwox++10QMSyv6BLCkCRSvT1k+AZzhEMfiNgGebCKGKdibvY83/m6K/gh9ge2wa8hfsGtK6utaV7kHGBWu6vWhNwA+JmGvxH5COWafWgHYv1EAZmJzCzwCjGuUZ4FXnX5vNeyp5h3YRWN7YJtGHK3YCFuRcRfgKY8ARRLZGLgNO0d6axUWvl4Hu/k+iD1k3Ac8jb0t8/pssCqwAfZWbvPGn9vR+vkb0i+wpERvCB0oAfAzB5vF717sFfbAtOEsYgiwa6N0NxMYj30+eB27oEzBPh/MxuoE9o2vP7aS4eBGGYm9+ViXMH0gVseegnZEq3hJngZgb7+aufn3ZEVszvz3LfbvZ2JvXyYCL2PfxOdgi5jNbfxvsLdxK2HL4Q7vVkZhi5GtWDC+GGZhHa9/kzqQKlEC4O8X2Df43wFbJ45leYZgGf/mqQNZincB/wX8NnEcIq04irDXgCHYZ7bNAv5GGXQtzDYudSBVo7GuYfwHe3L9P+yblbTuC6kDEGnR51MHkLlObPbV7dDNPwglAOHMwb5V7YF9b5fWbEseryglvRnL/0+ibANgZbQOfRFPYx1Dv4q+9wejBCC8m7FONT/CJq2Q5vTBOiiJLM+LDtt4wWEbYB1idX1t3jzgB9g187bEsVSeGmgcs4CvA+/GJuyR5vRLHYBkoegNo9NhG13UZpt3OzaC6Nss7IAsASkBiOtBbGjbEdgsgtI7Xk9lUm33UWx+hDvwa2tqs703AfgINsrh4bSh1IsSgPg6saFBGwPfwYbsyNK9gA1xElmeDuDkFv9uJ3CSYyyT8Jtno6reAL4FbApclTiWWlICkM4sbGa6tYFvAtPShlNal6YOQLLye2w1v2Z9D1tky0snartLMwP4b6xvzw+xOUdEam1V4DTgNdJPtVmWMgVYo8hOXYymAg5jAsXr4zEVcJcB2LK0vf3tswjzMDQCe8OX+jwqS3kVOAWb6VBEejAYG/v+NOlP2JRlAfZd0JMSgDAmULw+nglAl6OwV/FL+83HgX0D/G53H8M+TaQ+n1KWp7BFkLR8ecloJsDymQX8FPg5sCfwaWxO/zr1Kp4HHAdcmToQydrF2HTSu2IdzNbGhuJOAm4C/kX4JbQvweYEOJt6XW/nYqukXoDt65yWKhcplTWwYYQPkT6bD13uAXbw2W1L0BuAMCZQvD4h3gCUyU6Ua8XQUOVBbPKe1X12m4RUp4w0Z5Ox75RnYSvlfaRRyjqHf7Mex9ZB/xNwV+JYREIYi01puytwALAP8M6kEfkZh72tuxKt3ikSzZrYd84ryauz0WzgRuAb2HDIWPQGIIwJFK9P1d8A9GQ94LPA37BzIvV52dsyEzt/j8eWAZdM6Q1A3l7BvnNejPUReBfwXmyyofdSntdwL2KTtNyPLZc8FuvrIFJn44FfNsoQ7LzdHntTsD2wVrrQFvEqds7e2fjzQbREdyUoAaiOedj383uA/2n8u9HAFo2yJfa0vR7WKSmE17AOVhOBx1h409dEPiLLNhO4vlG6jGRhMrAZ1olxHWB4oBimYknJE8Aj2Kv9cWjW0spSAlBtzzfKtYv9+6FYIrA2djFZtVGGsTA5GMjCYTvTsF69b2GvKuc0/t1U7GY/EXsNrKd6ET8vNspfFvv3K2CJwLqNP1fGVswchJ23Q4H+LFxFcy6WYMDC8/Y1bJ6NKdj5Ox5NRlY7SgDqaRo2ouCh1IGISNNmYG/YHksdiORNUwGLiIjUkBIAERGRGlICICIiUkNKAERERGpICYCIiEgNKQEQERGpISUAIiIiNaQEQEREpIaUAIiIiNSQZgIUkaprAzbAFtfpxKbHnpg0IpESUAIgIlU1HPg6cAQwarH/7xngt8A5LJwnX6RW9AlARKpob+BpLAFY/OYPsCHwPWzlux0ixiVSGkoARKRqDgH+Ru+WvR4F3AbsEjQikRJSAiAiVbIxcBHQp4m/MxD4A7BGkIhESkoJgIhUyX8Dg1v4e6sBJzvHIlJqSgBEpCpGAvsV+PuforXkQSRLSgBEpCrGYEP+WjUI2M0nFJHyUwIgIlWxocM2NnDYhkgWlACISFWs5LCNoQ7bEMmCEgARqYrJDtt4xWEbIllQAiAiVfHvkmxDJAtKAESkKm4Ephf4++OBB51iESk9JQAiUhWzgB8V+PunYYsFidSCEgARqZKzgXtb+HvXAJc4xyJSakoARKRKZgMHAA818XduxVYM7AgSkUhJKQEQkap5GdgJOBeYu4z/bgZwKrAn8Fb4sETKpW/qAEREApgFnIB9EjgY2BUYgT3lvwDcDPwReC1VgCKpKQEQkSp7HjinUUSkG30CEBERqSElACIiIjWkBEBERKSGlACIiIjUkBIAERGRGlICICIiUkNKAERERGpICYCIiEgNKQEQERGpISUAIiIiNaQEQEREpIaUAIiIiNSQEgAREZEaUgIgIiJSQ0oAREREakgJgIiISA31TR2AiEhAOwCHA7sCawGdwPPALcClwH/ShSaSlhIAEami1YFfAh/u4f8bAbwb+AZwEfAlYEa80ETKQZ8ARKRqNgTuo+ebf3ftwNHA3cAaoYMSKRslACJSJUOBa4C1m/g7mwN/BPoHiUikpJQAiEiVnAxs1MLfey9wjHMsIqWmBEBEqmJF4NgCf/+b6JooNaLGLiJVMQYYWODvj8BGDYjUghIAEamKLRy2saXDNkSyoARARKpizZJsQyQLSgBEpCo8rmeaG0VqQwmAiIhIDSkBEBERqSElACIiIjWkBEBERKSGlACIiIjUkBIAERGRGlICICIiUkNKAERERGpICYCIiEgNKQEQERGpISUAIiIiNaQEQEREpIaUAIiIiNSQVr6qp1WA9YDRwHBgtcafw4EVGv/NYGBA45+nA3Mbf84BZjf+eSowCZjQKDNjBC9ScysA6wDrNv4cBqwEDAIGNv65f+NPgLeBWY1/ngFMAV5vlCksPIffiBG8lIcSgGpbF9iiUbYCNm78u5WW/lcKmQJMbJTHgPuB+4CXAv2eSJWNBLYDtgc2A9bGbvjDA/3eNCwReAJ4GBjXKBMD/Z4kpgSgOgZiF4v3Ajs1/lw1cgxdbxG2BQ7s9u9fYmEycB9wJ3pbINLdEGAX7Ga/PXYurxU5hqHYg8JWwEe7/fvXgLux8/Yu7Fx+O3JsEoASgLytB+wBfBDYC1gxbThLNQLYv1HAPiPcCdwE/BV4PFFcIil1nb/7YefwwLThLNVqLHr+zgbGovM3e0oA8rMp8JFG2SRxLK0aiF3wPgj8EHvl+HfgT9iFRaSqdgYOAPYFNkocS6sGsej5+x/gykZRMiDibC3gW9j3uM6Kl3uBHX122xK+5xDfLxzi2MMhjmcc4vAygeL12d0hjgsd4jjdIY6e7IS9Ok99foUuDwPfANb02W0SkoYBllc7MAZ7Kp4EnAlsnjSiOLYHbge+kDoQESdfAv4JvCtxHDFsib0VmAT8Afs0qftMSenAlM8Q4Djgaey1+AHU71NNX+B84PDUgYgUdBRwDvU7h/sBBwHXAU8BX8SubVIiSgDKY3XsKX8S8H/A+mnDSa4N+AmwRupARFq0FnYut6UOJLENsIR+IvYZbrW04UgXJQDprQKcij3xf6vxv8WsDJyQOgiRFn0FG1onZjhwEjAe+0ywctpwRAlAOkOwG/944BTCTc6TuyNTByDSgjbUdpdmCNZR8DngZGzWUUlACUB8bcCh2NAZ3fiXbxTqUSz5GY0+Xy3PMOAMrI/AUehTSXRKAOLaAbgHGy+7duJYcjI6dQAiTRqZOoCMjAQuwiYH2zZxLLWiBCCOIcD/YtNo7pA4lhzNSx2ASJPUZpv3XuBfwI/QZ4EolACEtyc2gc8JQJ/EseRoAfBs6iBEmvQ00JE6iAz1Bb4KPAJ8IHEslacEIJxB2NCX67E5v6U1DwJvpQ5CpEnTgH+nDiJjGwA3AudS3jUSsqcEIIzNsG/9X0QdW4o6P3UAIi36aeoAMteGzaL4ALB14lgqqW6zU8VwLPBjYEDqQHphOjaP+wvAlEZ5HZiPLdc7t/HfrQT0b/w5EFgBm+RkXWx98lAzfD0AXB5o2yl5fB8u0zfmqtXHy6XY9WCbQNufiU2uMwF4GZiBrbQ5HTt3pzf+u/7YOdqPhUt2D8dG2KxL+UcibYotR3w88MvEsVSKEgA/g7CFYj6WOpAezADuw76rjcMW7HgOeMNp+6tioxreia1jvj120SuyPPGrwBFU88Yw2WEbrzhsw8tkYMOC23jZI5CSmYtNZ30HxWa/ewv7FHZ/ozyF3finFA2wYRXslfuW3cp2WKJfFgOx6+u7sTerc9KGI7LQetj3vtQrcXWVadhCHF1PHyk6H7ZjmfsnsKf4KUuJtafyOJZMeCvLaoADsKezInGc4xCHl59SrC5TsafTosq6GuDGwJNNxDAFuAz4OHYOpfhU2xcbkncc8EeKt1fPcj8aRi0l8R7sCSj1STER+/SwGz4XU299gF2AH2BvIHqqw3PANwn3+aQsCQDA7wvG8T6nODwUXd74Eqc4ypoAgD3BfhOb+bOn330YOzd2ppyjhfphSzafja1Xkvp69zL2plEkmYOBWaQ7Cd7AesnuSH6dDVfFlgo9FDgQ2ITwdShTArA1NsSxlRhud4rBSxvW6bWVuszHOs16KHMC0KUda+sHYm1/L+xcyEkbsBNwHnYNSnX9mwl8OHBdRXp0Aq1fwIuWO7B5xjU8pvfagT9TngQA4KwWfv8tYHPHGLxsg12Qm63PGY4xeCQAfyS/ZDqlQVi/pztJcy2cj33qFInmO8Rv6POAK7DOOdKcduACfI6DZwLQB/hdE789Axjj+Pve9qe5N2IX4ft92yMB6DrGSgKatwP2aWs+8a+P345QPxF+SPwb/6/RZEKt8rz5eycAYDear7D8Tlb3k8dY6O2Ah1h2Xd7EhnR580oAlAQUsz7wW+InAmdGqJvU2P8SrzF3YE+H74hSs2ryvvmHSAC6rIYlAjdh47pfAx7FLqT7k9fNqB37xn0J8Bg2t8R4bGa3LxPum7dnAqAkoLiNsBFAHcS7bp4dpWZSO2cSrxHfh3Wykda1UXx4WswEQIrzTgA6gV+hGVOL2h4YS7zrZ+iOnFIzJxOn4b6Ojf3VU0cxIZ78lQCUX4gEoOuY65wsph34JM3NB1KkfCNOtaTqjiVOg70cWD1Snaos5M1fCUC5hUoAlAT4WYPic2D0thwTqU5SUfsTviPL68BBsSpUcaFv/koAyi1kAqAkwNchhH8bMI9yj5qREtsWG3MdsoHeBIyMVaGKC/XNXwlAPkInAJ2oT4CnNYHrCHu83iLcYkxSUaOAlwjXKBcA30VPE15iPPkrASi/GAlAVxvQueujHTiNsCMFXgRGxKqQ5K0fYWe1mgYcEK021RfryV8JQPnFSgA60ZsAb2MIO63w3diyyCLL9HPCNcKnCbPKXV3FfPJXAlB+MROArragNwF+NgKeIdzxOi9eVSRHRxOu8Y2l2JrgsqgUN38lAOUWOwFQEuBvNexpPdTxOjJeVSQn78TmWg/R6P6GLZohPlLd/JUAlFuKBEBJgL9BwDWEOVbTgQ3iVUVy0JfWlzNdXvk91q9AfMT+5q8EIB+pEoBO1CfAWz/gSsIcq/vQNVm6CTXN76XYim/iI+WTvxKA8kuZAHS1Db0J8NMHu4aGOFaey1BLxt5NmMl+rsbeLIiPMtz8lQCUW+oEQEmAv77AH/A/TvPR0uq11x8Yh3/j+jsacuKpLDd/JQDlVoYEQEmAv/7Atfgfp4fQp4BaOwX/RnU/MCRmJSou9Td/JQD5KEsC0In6BHgbRJh+Wt+KWQkpj42BOfg2pvHYYhfio0xP/koAyq9MCUBXW9GbAD9rAhPwPUazgQ0j1kFKwvuV0nRg06g1qLYy3vyVAJRb2RIAJQH+Nsd/jZa/RK2BJDcG3wbUARwctQbVVtabfyfwm4D1jmEj4FTgn8BTwJPArcB3gHcki8pHqB7jRcsvURLg6SP4rx2wR9QaSDL9gMfxbTw/jFqDaivzzb8TuCpc1YNaEduvyxrxMg/4Gfn2Yfkr6duHkoA4fozv8XkUjdqqhc/j23DuQg3HS9lv/p3Av4LVPpw1gUfofR3/DayeJNJiHiJ9+1ASEEc/7Fz0PD6fiVoDiW4g8AJ+DWY6sH7UGlRXjJv/Yw7bmEZevbsH0Frv6TvIayhrP2AW5WgjSgLi2BDf/gATsfNFKuoEfE/mo+OGX1kxbv4XYBN/eGxr2zC7IYiv0Xo9j08Qb6vei8+x3Rr4tdO2llaUBPj5JL7H5ti44UssQ4BX8Gso18cNv7Ji3fzbgZWctvfdIHvCXz/gdVqv5yvkM5W1x3TeHcBgrK0oCcjHDfgdl5fQwm2VdCx+jeQtYN2o0VdTzJt/l5cctvk0eVy8P0jxuu4aPerm9cFe3xat68Ru21QSkI/18F3J9XNxw5fQ+gDP4NdATowbfiWluPmD37ziB7rtiXC+SvF65vAZ4HB8jukVi21XSUA+inzqWrw8SV79fGQ5DsavcTyB5o8uKtXNH+yG5rH9hyn/6A+PoVJlH+LaHzsnPY7pF3rYvpKAPPTH5rXwOiYHxA1fQhqLX8PYJ3LsVZPy5g/Wycvrd75SdGcEdi7F63h29KibcxJ+x3OzpfyGkoA87Iff8bgjcuwSyJb4NYobI8deNalv/mAX2WedfmsO5R4RUPUEYEdgLj7H8snl/JaSgDzcgt/xWFpCKBk5D78GsWPk2Kskxqp+v6Z33+48eox3lReAdVrYHzFUOQFYH3gZv+N4ai9+s0xtWHrmNRy0E/jfyLGLs0HAG/g0hmsix14lZXjy724L599+knKOCqlqArAh8Bx+x68DWx20N/QmoPyuw+c4TMEmj5NMHYnfSblD5Niromw3/y63OsfwIrBTkzGEVsUE4P3AZHyP3Q1NxqAkoNx2xO84HB45dnF0DT6N4PbYgVdEjJv/L2ntlek+AWKZB5xBeSYSqVICMAQ4i2UvZtRq+VAL8SgJKLc78TkGWio4UysDb+PTCD4cOfYqKPPNH+zC2swCOc2UCdiiU6kTgSokAEOAL+G7hkf38hCt32SVBJTXh/HZ/3OAoZFjFwdH49MAnkGdcppV9pt/l70Cx/gmdoM4FBhRMNZW5JoAjAIOAy7CFtwKeYyKrgOvJKCc2vEb7XNU5NijqXKjuhbY22E73wZ+4LCdstsE2AbrDLUBMAx7+mrHLsLTgUnYutnjGn8u6GE77cAvgE8HjPUCbLrODodtebWT3piGza8/I9Lvjab4sr6TsafvGFbAEqUVI/3eNdjY8aK6Et5POmxraS4AjsFuSIvrg3Vs3QLYHFgbW/diRewcmQlMxW6ITwAPsvxhj1XwbeD7DtvxaicSyWB8lgadi62lXkV9sBvfxbQ2P/5rwCXY023XEpq5PPl3txE+bUUlrzIDG03gJfabgAHAR4Hf0dqCTy8CvwH2JJ8Fn5q1FtYvp+h+n4lGA2RlDD4n3J9jBx7BUGz2NI9FcbrKZGxs/W8ct7m0C2CIzzHHBY5bpXzl8/hrB34VOO4LsTeSrzpu8wXgm9hbg6r5Gz77aM/YgUvrvCb/OSx24AH1B76FfZdOffFtpYS6+YM9Vf2jBHVUiVOuJdznzxhJQKjyBraoTpXWOvkvfPbN/8QOXFrnsSjETOybZBXsDDxO+gtMqyXkzb/Lqvh1GlIpb3kKWIWwck4COrH+PVWZ9XRFfD7xPRY7cGnNmvicBFfHDjyAdqwjjMd3sFQlxs2/y6bk+4ZEZfllKtbnI4bck4C52NuAKnQU/yPF90cH9pAgJXcQPifA0bEDdzYA+APpLyRFSsybf5fdsbc/qeuu4ltmALsSV+5JQCdwBfb5MGefxmdfaD6YDJxN8QPdQZpx215WxHdVrBQlxc2/i5KAapUZwG6kUYUk4EZsSHCuRmHX9KL74azYgUvz7qb4gf539Kj99MdO2NQXjSIl5c2/y/uwxUBS7wuVYmUK8Z/8F1eFJOB68u4c6DHr59joUUtT+uDz5HZO7MCdtAGXk/5iUaSU4ebf5R3YxCmp94lKa+U/+I71L6IKScDF7nslHo+RYW9RnmuT9GAjfBr6R2IH7uRLpL9IFClluvl3GUb+fSnqWK6ifHO4VyEJ+Jz7XonjMHzqX5aEUnpwCD4HeWTswB1sg9/iRylKGW/+3R2FRgjkUN7ElgEvq9yTgNnYdMO5GY1P/Q+MHbj03ukUP8AvRo+6uHbgX6S/OLRaclnsZBQ2/bFHhyIV37IAWzwoh+Q99yTgDvI4XxfnMfvpd6NHLb12BcUP8HXRoy7uM6S/KLRacrn5d7cDcDPp952KlRuB7ZZ5xMon9yQgxxXyrqd4vS+NHrX02j0UP8D/HT3qYvoDE0l/QWilXEh+N//u3gVcRt4TLeVa5mIL4Wy73KNUXu2EXz8jVHkW6Ou/S4L6EcXrXamRAGX+5tqKdR228ajDNmI6Elv+M0cvYydVrh4AjsDmjPg8cBs+SxRLzzqAf2L7egQ2z/uDKQMqqANbSCtH62NtPyce1/b1HLYhAQzG59vsTrEDL+h+0j8NtFpeIf9Zxha3MrZ2+I+wm1VXkqPSfHmpsQ/PAvbFRmRUyUBsWe3U+7nVco//LglqF4rXuQMYFDvwUHJ+/bq4d2ALfRQ1inw6Am6G/xuLTuA+4AZsmdC3sX2yCzabmvcN+1Cqse7CsqyIvZ0ais2oFmvZ1SOAAwpu4y/Yq/YYpmPzeEwDxmMz+FXZ4dgnJE9zsaTpTuz8HYD1gP8Q9snK20b4XHdjGAU877CdDbFPIFIiO1I8u5tDXp9FTsM3o7+BZQ/xWRP4Ob694HOeXKTsTqT48TkxetT14Tlp1wLgZ9g5ujRbAjc5/mYncHLBfRBTO3aNL1rnd8cOXJZvX4of2InRoy7mDvxO5NPo/RuhA7GnM4/ffZW8kq6c7E7x47Nb7KBroi9+U03PoPfj09vwGS7dVW5tqfbpTKJ4ncdEj1qW6+MUP7APRI+6dYPxm/jnjBZ+/0DsqcPj97do4fdl+fpiCVarx+VV8uvpnYtt8Tl3FtDaZ54znH5/DtaXIRcPUrzOH4sedSBVevJaxWEbUxy2Ecsm+HyPvxc4pYW/9yfgAoffB3s1Kf7mAz8s8PfPbGxD/Hm1+V8Af27h752CTR5W1ACsH0AuPK7xHveaUqhSAuCRhU512EYsXifdybQ+dO00rNNRUTlOLZqL84G7Wvh7Y4GfOsciC3m0+bnY6/xWdADfcYgB8koA3nDYRk5vPJapSgmAx9PwHIdtxLKuwzYmYzPateplbOx7UaMdtiE9mwscBDzcxN95CDgYn+ROeubR5m/FhtK26mZ85iFY12EbsbztsI0BDtsohSolAB4HJacLnsdQsrEUn7jmDoc4yrZqW9VMBnbGXhcv65X+fGyUx87kO0FNLjzO36LnXgc+M9vldP4qAeimSh18PN4A5JQArOCwjRcctuExZ0JOF5BczcCWcv0fbGnU3Vm4cM4L2NPkFcDTSaKrH48E4CWHbXhcA1Z02EYsSgC6qVIC0Jk6gMg8ppzt57ANj8RL0+fG8xT23bjVb8fiw+N65XH+emxjgcM2YvF4612Z61WVPgHULbN7y2EbHmsIeHzL9KiLSE7Kcv56bCOn87dub4qXqUoJgMdBySkBmOawjV0pXuc9HeJ402EbIjnxOH+Lnnv9sSm+i8rp/PW4xns8bJaCEoBF5TS84xmHbawIHFLg72+Bz/ziHnURyYlHm9+OYsMJD8KnL0JO56/HQj5KAEpolsM2cprg4Umn7ZyGzSrYrDasQ5nHglJedRHJhUebL3IODqK1GUB7ktP563GN97jXiLMjKT7FYzNjpVPrh31785jO83Kav4h4LkT0ziZ/WyR3m+F3/jQ7k2cbtgqhx2+/SV6dyR+heJ2PiB61LNdeFD+wHkNiYroWv4vI5fTuTUAbdvP3WhFwUsu1F8lXGzaRlsc51IElAb1J4gdhyzt7XTf+2uoOSORFitfZo9+TONue4gd2Hnlls1/G70TuxL7lHU7PPWXbgQ8C9zj/5q9d9oRIfi7B91y6C5vfoadEoD82/8NTzr95nMueiKMfNtlV0Tp79HsqBY/vt2WxHvCcw3bWB8Y7bCeGkdgSxn2ctzsNuLOx7fmN39kZWMP5dwD2wNYoz9XKwPuxdrMS8Dy2qmROK0vm4F2NMhprn88Bt5BXD/TFjQH+HmC7L2Hn70vYA8062Igf7wm35gOjyGfWyA3w6bC4LvktHV95/fHJ7naPHXhB/8A3o49ZniffjqjrAL/F3hr1VLdnsH4pVUqyY2vDll59hp738TzgQnzGsqfQF7/PAClKiOQlpA9SvM7z8Jk8SQKYRPED/OnoURczhvQXglbL1wPsjxj2xVaO7E0d/woMSRNm1oYAf6N3+/gNYO80YRZ2MunPw1bLHgH2R0jHULzO46NHLb12G8UP8LnRoy6mDXiQ9BeDZsvr5DWHeJf3Y+OAm6nrzeTVtyS1vtjr/Wb28RxgtwSxFjUM+4yR+nxsttwTYmcEdj7F631L9Kil1y6i+AG+NXrUxXmMgIhdTgyyJ8Iain3vbKW+pySIN1en0No+fhmfiW1i+zbpz8dmy/uD7ImwPB4Q1Wm5xL5F8QM8hTy/215N+otCb8sj5PlE/D1ar/NbwKrxQ87OahSb3+K0+CEX1h94gvTnZW/LZWF2Q1Bt2KeionXP9bNlLeyDTwPPcWKakcBrpL84LK/MBd4daB+E1IZ9/xJXm8QAAA8PSURBVCtS92OiR52fL1BsHz9Hngn8Liy9Q2mZyivAmoH2QUgb41P/vWIHLr03Gp+DfHTswJ2MwW+CnlDlK8FqH9bWFK/7ldGjzs9VFN/PW0eP2kfZPwUsIL+Of10+hc8+GBk7cGmOx2ueX0WP2s93SH+hWFppZcrhsvg6xes/NnrU+bmb4vv5a9Gj9tEO/IH05+nSyjfCVT24Cyle/9ejRy1Nu4niB/rZ6FH7+gnpLxaLl5vwWYs7lRspvg/+FT3q/NxH8f18Q/So/QzEOiKnPl8XL7mNjlrcBOrdrmrDa5GajWIH7qidciUB1wMrBK1xWIOB2RTfD1fHDjxDHp1ZZ+Gz7GsqK+LzIONVziXfCbsANsVnP5wSO3Bp3ofwOdgnxA48gJNJ3yfgIvKfOcurTX07duAZOgmffZ3rt+ouA/Bbsa/VsoC8X/t3ORGf/fGB2IFL81bCZ0rgnOen725v4FXiXzxmA5+LUL8YzsZnn7w3duAZ2gmffX1W7MADOQ6b5Cj2+fsKNnVuFTQ7qVRPZR55v8WslfspfsDnE2bxmxRGYD3QY1087gA2j1Kz8DyG/3UCM8j/TUgM/YGZFN/fz5Jvh9PFbYVP58jelsvIc6hfT9bE54Ewx5kPa6vIhC3dyxdiBx7YHvgkR8u66B5FdS68AO/DZ99cHzvwjN2Azz7fOXbgAbUDn8QnGV1a+Rd5zvC3LMfis29OjRy3FOD1GvH22IFHsjd2Q/LIjDux7Pgo8pzdb3l+jc8+Oj524Bn7Mj77/JexA4+gHzZPyb347KP5wLXAnjErEdFYfPbTe2IHLq3ri898AB3YDFJVNQLr7Ph3mpt+dQ7wT2zOgZxHSyzPIGzteY8LyAaRY8/ZO/DZ51OxYXVVtQnwXexBpZkFqqZhKy0eR3Ve9fdkE3za0etAn8ixR1GlV7WLuww43GE7ZwNfddhO2fXFpkDeCFgfGI51eumDJQdvABOBp7B5y2enCTOqw7DJi4p6ArsYSe89ic+U3B/BZhesukFYG3snsA6wMjaccAF2/k7BPh88DjyDPflX3dn4LDp2KfAxh+1IRAfgk/29SrWfImTpvL5F/yB24BVwFj77/rrYgUspDMRvbZT9IscuDgbgt872ZyLHLulthd8cCltFjr0KtsVn33eS79oA0rpj8Gk7U7F7iWToYnwawRPkPROWNO9y/NqOtOZJfI7BJbEDl6TagP/g03Z+Ezl2cbQXfk8R+0eOXdJZH78REqfGDb1STsfnGMzFvotLPRyI33W/qqMjaqEdn0UgOoEHqHanSVnop/i0mQ7U+7+I9bBObB7HIvfFbKR32oB/49NmJlLR3v918l38ssGDIscu8a2JLSbj0V60elhxXovizABWixy7xHcIftf7kyPHLgGMxu917jiUEVbdL/G7gHw0cuxVdDh+x+OnkWOXuPoCj+HTVuYBI+OGL6H8Cb+LSFUWuJElbY1fsvgSNq+9FDMAeBmfYzIf2CJu+BLRF/C7zv8hcuwS0M74NYwpwCpxw5dIbsSvnZwUOfYqOwW/43Jz5NgljpXxG/ffCewYN3wJ7R78Goc6FFXPQfi1j1nAqnHDr7TVsZknvY7Ph+OGLxGcj1/7GBs5dongUPwayHzg3XHDl4AGYSsZerUPfWv2dwF+x+dpNLtnleyI32iRTmwWWamYPvhNDtEJPIK+8VbFOfi1i7nAulGjr4f1sY5ZXsfp7LjhSyD9gUfxaxePoknfKsvzLUAncEbc8CWA9+P79PCruOHXym/xO04LgN1iBi9BfA/fa/qBccOXmNqBh/BrLPOxDoaSp2HAJPzaw1w08U9I78D3LcAEYGjMCoirXfEbtdOJJnurhf3xzRjHo4tIri7Bty2cHzf8Wvo5vsfst1GjFy/DsJn6PNvCmKg1kGRuxrfh/Alljrk5At82MB3rrS5hrYmtb+957DRhU17agL/i2wY0a2eNbInvq6NO4FtRayBFbIffdL9dRdOGxnMqvsduJrb8sOThZHyP/zxgs6g1kOR+hm8jmo+tPijlthbwAr7H/jlsKKHEMRi/Rb66yiTs7YKU2xh8O+12AudFrYGUwqr4zhzVib0G3ipmJaQpA4G78T3mncB+MSshgI3V9j6OY7Gph6WctsausZ7HfDKa2bW2jsT/IvI8WkSijNqAi/E/3tfErIQs4u/4H8/fov48ZTQK/zd3ncBhMSsh5ePdmaQTeAJYI2YlZLnOwv84TwPWjlkJWcQ6+D8RdmITQ0l5rIrfKn/dy7UxKyHlFOoi8gA2VEXS+xH+x7cT+GzMSkiPPk+YY/vDmJWQpRoGPEiY5H10xHpIiR1NmIvI3SgJSO37hDm2N6JXxWXQBtxKmGN8esR6yJKGEabPTidwVMR6SAauJExDewCtDJfKKYQ5pq9j3ySlHNYG3iDMsdbwzjRWI8yTfydwecR6SCZWxnda2O7lMdQxMKY+2NCeEMeyE80XXkbe63x0L+dibUriGIXvwm3dywT0VlaWYmdsPvcQDe95NEQwhiHAXwh3M/hZvKpIkzyXDF68/Bmbf0DC2powvf07gbexpYNFluo4wl1EpgN7x6tK7awJ3Eu443cvWke+zAZhn9xCHf9/odE9IY0hTIfsrvKFeFWRnF1KuEY4H/g26kDmbStsYaZQx+1V1Gs4B+tifTRCtYPn0Js8b21YXwvvGf66l4ui1UayNxi4n3CNsRN7pahVBItrA44FZhPuWM0Fdo9VISlsD3yXDV68zAa+GK021bYyYeZi6V7uRVN1S5PWwn++8cXLRGxNa2nNMMKN3uhePherQuLm04RvF38GhseqUAW9B3iWsMdoPFrjQVq0OfAmYRvofOAMoF+kOlXFbljHytAX+R9Eqo/4CzUBVPcyCSXxzeoPfA//FVkXL1OBTSPVSSrqA8Acwl9IHgHeHalOORuO9fbuIPwxuRhoj1MtCaAd+B3h28kC4OdoUZne2BF4lPDHZDb2kCBS2IcJNzywe5mPjTnWONUltQGfxH8Fx6WVy9HY7yroS5zPRJ1YR9FPoA6+PVkZOJ+wHf26ylxg3zjVkro4jPCvrLpfSI5BN6AuWwJ3EGffdwJXYzcOqYZ+2Pf6WO3ndmCLKDUrv77Y8LuQIzO6l/nAR6PUTGrnE8RLAjqBccBB1PeJYjPgCuI8NXSVv6D+GFXUnzDLBy+tLAAuAzaJUbkSagMOIcwqfsu6+X88RuWkvg4jzueA7uUBYH/q8z16U+Lf+Dux5UEHRKifpDEQ+Adx21TdEoF2bKrsh4i7n+eiJ3+JZH/idAxcvDyODW+q4k2qDXgf9r029o2/E/gbmuWvDgZhxzp2+1qAJbVVHTEwEFse+wni79vZ6Ju/RPYBwg8RXFp5FfgxsHHwWoY3HPgyltyk2JedwG/QN/866QP8hHTt7T/ACVRj1MAmwNnE65y7eJmKevtLIptjk/mkupB0Yp3jvkhec5QPAvbDplwOOYNfb8qZ1LePRd19lTRvm7rKbOAS7Ok1p5nq1sRm3xxL2nN3PBrnL4mtRfhpg3tT5gM3Y0/TZXwzsDo2jO9PwEzS76+3gaOD1lhycAgwi/TtcSZ2bhwNrBa0xq3ZBDgRuIW4HaGXVu4lr4ceqbDBhF1AqJUyHrgQu+mmSAg2AI4AzsFWUUv5pLV4eRVb+lkEbHKaV0nfLrvKfOAe7Nw5HFg/XNWXamPgU9jnsQnLiDVFuYi83piUll59+joO+x5WxmFkU7HZBh9t/PksliQ8jy2c0or+wNrYCmzrNcoW2IyGZXyKAbgNOBJbc1yky2hs1sBdUgeyFK9hifQj2A15fKNMovXztx8Lz98NsXO3q6xcKNow5mJvOH+aOpCqUALgb2ds2E8uS8cuACYDU7qVt4EZ3f6bgVjGPbTxz0OwG/xI8pmsaAFwOvD9xj+LLK4P8F3gJPJq1y9iCcJMbHTSNKx/wZxu/90K2Oih4d3KGuRTz4nY25C7UwcisjxDKd8ngToXLdgizXgP8Bzp262KlauoxogJqZlPANNJfwLVufwJXTykecOxWSFTt986l+nAUcs7UCJltjZxpyBVsTIZXTykmDYsiS9TB8G6lGvI5zOqyHIdit2UUp9YVS8d2DK+q/busIgs1zBslc4yDH+relHiLpU1HJuBbB7pT7QqlvuB7Xt9NESa827gQdK38yqWecB56HOd1MDmwI2kP+mqUt7AZibLpUez5KsP8CVsWG3qdl+VcgO28qdIreyDrfSX+gTMtcwAfkA5xyxLtQ0DTiXdeiBVKA8AY5rc7yKV0gYcBIwj/QmZS5mJfZNds4X9LeJpGHAaSgSaKY9gSwZrHhqRhq51tO8k/Qla1jIVm8inrLMMSn2tjE00NY3050lZy1jsGtfe4j4WqYUdgatRZ8Gu8ji24uGKRXaqSARDgeOBp0h/3pShzAf+ALy3yE4VqaMRwMnUc1ay2cDvgT3Qq0LJTzuwF5bIv0368yl2GY9du0YW3ZEiddeO3Qh/Q7V7H3cAd2FP++rYJ1UxHFso7B6sjac+z0KVqcBvgT3Ra36RIPoD+2GT3bxG+pO+aJkH3IpdIEc57ieRMlobOAG4nWpMLPQ6cAl2TRrguJ8kAr1azVs7sB2wN/a6cTugb9KIemc8cDNwPXAT1nFKpG5Wxt7s7QV8AEsOym4+NnzveuA6bPItra6ZKSUA1TIEm61sZ6zTzbtIPyXuLGzYz/1YL+A7sOVLRWRRawO7ADthyfwW2PLbKb2Bnbt3YSOU/sWiS4VLxpQAVN9a2IVkK2AjYL1GGY3v24LJwPPA08CTjTIOeAI9IYi0oi+wKXb+bgS8s1FG45vYzwdewN7MTcDO2Uew81fJeoUpAaivvlhyMBwbVz+8UVZo/P8rsejUurOw3syzsM4+bzbKi8BLjf9PROIYiPWZGYFNRrRy48+B2HDZxZP7aVgHxFnAlEZ5HetH9DLWF0dERERERERERERERERERERERERERERERERERERERERERERERERERERERERERERERERERERERERERERE/l97cEAAAAAAIKT/qzsCAAAAAAAAAAAAAAAAAAAAAAAAAAAAAAAAAAAAAAAAAAAAAAAAAAAAAAAAAAAAAAAAAAAAAAAAAAAAAAAAAAAAAAAAAAAAAKhqZi62x8XoveQAAAAASUVORK5CYII=;rotation=-45;" vertex="1" parent="1">
          <mxGeometry x="360" y="380" width="90" height="90" as="geometry" />
        </mxCell>
        <mxCell id="mcXkHLiVcLa4XkpfHniU-3" value="" style="endArrow=classic;html=1;rounded=0;" edge="1" parent="1">
          <mxGeometry width="50" height="50" relative="1" as="geometry">
            <mxPoint x="403" y="423" as="sourcePoint" />
            <mxPoint x="543" y="283" as="targetPoint" />
          </mxGeometry>
        </mxCell>
        <mxCell id="mcXkHLiVcLa4XkpfHniU-4" value="" style="endArrow=classic;html=1;rounded=0;" edge="1" parent="1">
          <mxGeometry width="50" height="50" relative="1" as="geometry">
            <mxPoint x="403" y="423" as="sourcePoint" />
            <mxPoint x="260" y="290" as="targetPoint" />
          </mxGeometry>
        </mxCell>
        <mxCell id="mcXkHLiVcLa4XkpfHniU-6" value="X" style="text;html=1;align=center;verticalAlign=middle;resizable=0;points=[];autosize=1;strokeColor=none;fillColor=none;" vertex="1" parent="1">
          <mxGeometry x="235" y="290" width="30" height="30" as="geometry" />
        </mxCell>
        <mxCell id="mcXkHLiVcLa4XkpfHniU-7" value="Y" style="text;html=1;align=center;verticalAlign=middle;resizable=0;points=[];autosize=1;strokeColor=none;fillColor=none;" vertex="1" parent="1">
          <mxGeometry x="550" y="270" width="30" height="30" as="geometry" />
        </mxCell>
      </root>
    </mxGraphModel>
  </diagram>
</mxfile>
